%TF.GenerationSoftware,KiCad,Pcbnew,(5.99.0-11450-g1c1f7ac07e)*%
%TF.CreationDate,2021-09-18T13:42:06-03:00*%
%TF.ProjectId,LedHAt,4c656448-4174-42e6-9b69-6361645f7063,rev?*%
%TF.SameCoordinates,Original*%
%TF.FileFunction,Copper,L1,Top*%
%TF.FilePolarity,Positive*%
%FSLAX46Y46*%
G04 Gerber Fmt 4.6, Leading zero omitted, Abs format (unit mm)*
G04 Created by KiCad (PCBNEW (5.99.0-11450-g1c1f7ac07e)) date 2021-09-18 13:42:06*
%MOMM*%
%LPD*%
G01*
G04 APERTURE LIST*
G04 Aperture macros list*
%AMRoundRect*
0 Rectangle with rounded corners*
0 $1 Rounding radius*
0 $2 $3 $4 $5 $6 $7 $8 $9 X,Y pos of 4 corners*
0 Add a 4 corners polygon primitive as box body*
4,1,4,$2,$3,$4,$5,$6,$7,$8,$9,$2,$3,0*
0 Add four circle primitives for the rounded corners*
1,1,$1+$1,$2,$3*
1,1,$1+$1,$4,$5*
1,1,$1+$1,$6,$7*
1,1,$1+$1,$8,$9*
0 Add four rect primitives between the rounded corners*
20,1,$1+$1,$2,$3,$4,$5,0*
20,1,$1+$1,$4,$5,$6,$7,0*
20,1,$1+$1,$6,$7,$8,$9,0*
20,1,$1+$1,$8,$9,$2,$3,0*%
G04 Aperture macros list end*
%TA.AperFunction,ComponentPad*%
%ADD10R,3.500000X3.500000*%
%TD*%
%TA.AperFunction,ComponentPad*%
%ADD11RoundRect,0.750000X-0.750000X-1.000000X0.750000X-1.000000X0.750000X1.000000X-0.750000X1.000000X0*%
%TD*%
%TA.AperFunction,ComponentPad*%
%ADD12RoundRect,0.875000X-0.875000X-0.875000X0.875000X-0.875000X0.875000X0.875000X-0.875000X0.875000X0*%
%TD*%
%TA.AperFunction,ComponentPad*%
%ADD13R,1.600000X1.500000*%
%TD*%
%TA.AperFunction,ComponentPad*%
%ADD14C,1.600000*%
%TD*%
%TA.AperFunction,ComponentPad*%
%ADD15C,3.000000*%
%TD*%
%TA.AperFunction,ComponentPad*%
%ADD16R,2.600000X2.600000*%
%TD*%
%TA.AperFunction,ComponentPad*%
%ADD17C,2.600000*%
%TD*%
%TA.AperFunction,ComponentPad*%
%ADD18R,1.700000X1.700000*%
%TD*%
%TA.AperFunction,ComponentPad*%
%ADD19O,1.700000X1.700000*%
%TD*%
%TA.AperFunction,ViaPad*%
%ADD20C,0.800000*%
%TD*%
%TA.AperFunction,Conductor*%
%ADD21C,1.500000*%
%TD*%
%TA.AperFunction,Conductor*%
%ADD22C,0.254000*%
%TD*%
%TA.AperFunction,Conductor*%
%ADD23C,0.250000*%
%TD*%
G04 APERTURE END LIST*
D10*
%TO.P,J3,1*%
%TO.N,/5V*%
X34450000Y-33192500D03*
D11*
%TO.P,J3,2*%
%TO.N,/GND*%
X28450000Y-33192500D03*
D12*
%TO.P,J3,3*%
X31450000Y-37892500D03*
%TD*%
D13*
%TO.P,J4,1,VBUS*%
%TO.N,/5V*%
X61925200Y-30149800D03*
D14*
%TO.P,J4,2,D-*%
%TO.N,unconnected-(J4-Pad2)*%
X64425200Y-30149800D03*
%TO.P,J4,3,D+*%
%TO.N,unconnected-(J4-Pad3)*%
X66425200Y-30149800D03*
%TO.P,J4,4,GND*%
%TO.N,/GND*%
X68925200Y-30149800D03*
D15*
%TO.P,J4,5,Shield*%
%TO.N,unconnected-(J4-Pad5)*%
X58855200Y-32859800D03*
X71995200Y-32859800D03*
%TD*%
D16*
%TO.P,J1,1,Pin_1*%
%TO.N,/5V*%
X40716200Y-33299400D03*
D17*
%TO.P,J1,2,Pin_2*%
%TO.N,/GPIO18_5V*%
X45716200Y-33299400D03*
%TO.P,J1,3,Pin_3*%
%TO.N,/GND*%
X50716200Y-33299400D03*
%TD*%
D18*
%TO.P,J2,1,Pin_1*%
%TO.N,/3V3*%
X28370000Y-24970000D03*
D19*
%TO.P,J2,2,Pin_2*%
%TO.N,/5V_Rpi*%
X28370000Y-22430000D03*
%TO.P,J2,3,Pin_3*%
%TO.N,/SDA(GPIO2)*%
X30910000Y-24970000D03*
%TO.P,J2,4,Pin_4*%
%TO.N,/5V_Rpi*%
X30910000Y-22430000D03*
%TO.P,J2,5,Pin_5*%
%TO.N,/SCL(GPIO3)*%
X33450000Y-24970000D03*
%TO.P,J2,6,Pin_6*%
%TO.N,/GND*%
X33450000Y-22430000D03*
%TO.P,J2,7,Pin_7*%
%TO.N,/GPIO4*%
X35990000Y-24970000D03*
%TO.P,J2,8,Pin_8*%
%TO.N,/UART0_TX*%
X35990000Y-22430000D03*
%TO.P,J2,9,Pin_9*%
%TO.N,/GND*%
X38530000Y-24970000D03*
%TO.P,J2,10,Pin_10*%
%TO.N,/UART0_RX*%
X38530000Y-22430000D03*
%TO.P,J2,11,Pin_11*%
%TO.N,/GPIO17*%
X41070000Y-24970000D03*
%TO.P,J2,12,Pin_12*%
%TO.N,/GPIO18*%
X41070000Y-22430000D03*
%TO.P,J2,13,Pin_13*%
%TO.N,/GPIO27*%
X43610000Y-24970000D03*
%TO.P,J2,14,Pin_14*%
%TO.N,/GND*%
X43610000Y-22430000D03*
%TO.P,J2,15,Pin_15*%
%TO.N,/GPIO22*%
X46150000Y-24970000D03*
%TO.P,J2,16,Pin_16*%
%TO.N,/GPIO23*%
X46150000Y-22430000D03*
%TO.P,J2,17,Pin_17*%
%TO.N,/3V3*%
X48690000Y-24970000D03*
%TO.P,J2,18,Pin_18*%
%TO.N,/GPIO24*%
X48690000Y-22430000D03*
%TO.P,J2,19,Pin_19*%
%TO.N,/GPIO10*%
X51230000Y-24970000D03*
%TO.P,J2,20,Pin_20*%
%TO.N,/GND*%
X51230000Y-22430000D03*
%TO.P,J2,21,Pin_21*%
%TO.N,/GPIO9*%
X53770000Y-24970000D03*
%TO.P,J2,22,Pin_22*%
%TO.N,/GPIO25*%
X53770000Y-22430000D03*
%TO.P,J2,23,Pin_23*%
%TO.N,/GPIO11*%
X56310000Y-24970000D03*
%TO.P,J2,24,Pin_24*%
%TO.N,/GPIO8*%
X56310000Y-22430000D03*
%TO.P,J2,25,Pin_25*%
%TO.N,/GND*%
X58850000Y-24970000D03*
%TO.P,J2,26,Pin_26*%
%TO.N,/GPIO7*%
X58850000Y-22430000D03*
%TO.P,J2,27,Pin_27*%
%TO.N,unconnected-(J2-Pad27)*%
X61390000Y-24970000D03*
%TO.P,J2,28,Pin_28*%
%TO.N,unconnected-(J2-Pad28)*%
X61390000Y-22430000D03*
%TO.P,J2,29,Pin_29*%
%TO.N,/GPIO5*%
X63930000Y-24970000D03*
%TO.P,J2,30,Pin_30*%
%TO.N,/GND*%
X63930000Y-22430000D03*
%TO.P,J2,31,Pin_31*%
%TO.N,/GPIO6*%
X66470000Y-24970000D03*
%TO.P,J2,32,Pin_32*%
%TO.N,/GPIO12*%
X66470000Y-22430000D03*
%TO.P,J2,33,Pin_33*%
%TO.N,/GPIO13*%
X69010000Y-24970000D03*
%TO.P,J2,34,Pin_34*%
%TO.N,/GND*%
X69010000Y-22430000D03*
%TO.P,J2,35,Pin_35*%
%TO.N,/GPIO19*%
X71550000Y-24970000D03*
%TO.P,J2,36,Pin_36*%
%TO.N,/GPIO16*%
X71550000Y-22430000D03*
%TO.P,J2,37,Pin_37*%
%TO.N,/GPIO26*%
X74090000Y-24970000D03*
%TO.P,J2,38,Pin_38*%
%TO.N,/GPIO20*%
X74090000Y-22430000D03*
%TO.P,J2,39,Pin_39*%
%TO.N,/GND*%
X76630000Y-24970000D03*
%TO.P,J2,40,Pin_40*%
%TO.N,/GPIO21*%
X76630000Y-22430000D03*
%TD*%
D20*
%TO.N,/GPIO18*%
X39700000Y-26300000D03*
%TO.N,/GND*%
X42280000Y-23760000D03*
X22072600Y-38277800D03*
X21818600Y-34899600D03*
X62575489Y-23604511D03*
X82448400Y-28778200D03*
X21666200Y-31623000D03*
X24688800Y-40208200D03*
X61163200Y-40259000D03*
X35200000Y-27300000D03*
X82499200Y-31496000D03*
X74803000Y-40182800D03*
X82575400Y-37973000D03*
X54533800Y-40411400D03*
X28168600Y-40538400D03*
X68808600Y-40132000D03*
X35407600Y-40309800D03*
X64617600Y-40030400D03*
X40665400Y-40436800D03*
X77851000Y-40182800D03*
X70375489Y-23604511D03*
X45440600Y-40208200D03*
X58013600Y-40259000D03*
X82499200Y-33832800D03*
X34750000Y-23775000D03*
X81508600Y-39903400D03*
X82499200Y-35890200D03*
X49920000Y-23800000D03*
X71018400Y-40132000D03*
X50215800Y-40309800D03*
X21666200Y-28016200D03*
%TD*%
D21*
%TO.N,/5V*%
X40716200Y-33299400D02*
X40716200Y-32583800D01*
X40716200Y-32583800D02*
X43150200Y-30149800D01*
X43150200Y-30149800D02*
X61925200Y-30149800D01*
D22*
%TO.N,/GPIO18*%
X39700000Y-26300000D02*
X39706511Y-26293489D01*
X39706511Y-23793489D02*
X41070000Y-22430000D01*
X39706511Y-26293489D02*
X39706511Y-23793489D01*
D23*
%TO.N,/GND*%
X33450000Y-22430000D02*
X33450000Y-22475000D01*
X33450000Y-22475000D02*
X34750000Y-23775000D01*
X37335000Y-23775000D02*
X38530000Y-24970000D01*
X34750000Y-23775000D02*
X37335000Y-23775000D01*
D22*
%TO.N,/3V3*%
X29546511Y-23793489D02*
X31553111Y-23793489D01*
X46812200Y-21209000D02*
X47513489Y-21910289D01*
X32156400Y-23190200D02*
X32156400Y-21513800D01*
X31553111Y-23793489D02*
X32156400Y-23190200D01*
X32156400Y-21513800D02*
X32461200Y-21209000D01*
X47513489Y-23793489D02*
X48690000Y-24970000D01*
X32461200Y-21209000D02*
X46812200Y-21209000D01*
X28370000Y-24970000D02*
X29546511Y-23793489D01*
X47513489Y-21910289D02*
X47513489Y-23793489D01*
%TO.N,unconnected-(J4-Pad5)*%
X58855200Y-32859800D02*
X71995200Y-32859800D01*
D21*
%TO.N,/5V_Rpi*%
X28370000Y-22430000D02*
X30910000Y-22430000D01*
%TD*%
%TA.AperFunction,Conductor*%
%TO.N,/5V*%
G36*
X42131521Y-29052202D02*
G01*
X42178014Y-29105858D01*
X42189400Y-29158200D01*
X42189400Y-31365400D01*
X42169398Y-31433521D01*
X42115742Y-31480014D01*
X42063400Y-31491400D01*
X40988315Y-31491400D01*
X40973076Y-31495875D01*
X40971871Y-31497265D01*
X40970200Y-31504948D01*
X40970200Y-35089285D01*
X40974675Y-35104524D01*
X40976065Y-35105729D01*
X40983748Y-35107400D01*
X42063400Y-35107400D01*
X42131521Y-35127402D01*
X42178014Y-35181058D01*
X42189400Y-35233400D01*
X42189400Y-37389800D01*
X42169398Y-37457921D01*
X42115742Y-37504414D01*
X42063400Y-37515800D01*
X33834500Y-37515800D01*
X33766379Y-37495798D01*
X33719886Y-37442142D01*
X33708500Y-37389800D01*
X33708500Y-36925136D01*
X33705381Y-36867543D01*
X33660380Y-36637107D01*
X33577196Y-36417548D01*
X33458209Y-36215144D01*
X33306819Y-36035681D01*
X33127356Y-35884291D01*
X32924952Y-35765304D01*
X32737613Y-35694327D01*
X32680998Y-35651488D01*
X32656530Y-35584840D01*
X32671979Y-35515545D01*
X32722440Y-35465602D01*
X32782254Y-35450500D01*
X34177885Y-35450500D01*
X34193124Y-35446025D01*
X34194329Y-35444635D01*
X34196000Y-35436952D01*
X34196000Y-33460048D01*
X34704000Y-33460048D01*
X34704000Y-35432385D01*
X34708475Y-35447624D01*
X34709865Y-35448829D01*
X34717548Y-35450500D01*
X36244672Y-35450500D01*
X36251486Y-35450131D01*
X36302351Y-35444605D01*
X36317606Y-35440978D01*
X36438054Y-35395824D01*
X36453649Y-35387286D01*
X36555724Y-35310785D01*
X36568285Y-35298224D01*
X36644786Y-35196149D01*
X36653324Y-35180554D01*
X36698478Y-35060106D01*
X36702105Y-35044851D01*
X36707631Y-34993986D01*
X36708000Y-34987172D01*
X36708000Y-33566948D01*
X38908200Y-33566948D01*
X38908200Y-34644072D01*
X38908569Y-34650886D01*
X38914095Y-34701751D01*
X38917722Y-34717006D01*
X38962876Y-34837454D01*
X38971414Y-34853049D01*
X39047915Y-34955124D01*
X39060476Y-34967685D01*
X39162551Y-35044186D01*
X39178146Y-35052724D01*
X39298594Y-35097878D01*
X39313849Y-35101505D01*
X39364714Y-35107031D01*
X39371528Y-35107400D01*
X40444085Y-35107400D01*
X40459324Y-35102925D01*
X40460529Y-35101535D01*
X40462200Y-35093852D01*
X40462200Y-33571515D01*
X40457725Y-33556276D01*
X40456335Y-33555071D01*
X40448652Y-33553400D01*
X38926315Y-33553400D01*
X38911076Y-33557875D01*
X38909871Y-33559265D01*
X38908200Y-33566948D01*
X36708000Y-33566948D01*
X36708000Y-33464615D01*
X36703525Y-33449376D01*
X36702135Y-33448171D01*
X36694452Y-33446500D01*
X34722115Y-33446500D01*
X34706876Y-33450975D01*
X34705671Y-33452365D01*
X34704000Y-33460048D01*
X34196000Y-33460048D01*
X34196000Y-30952615D01*
X34194659Y-30948048D01*
X34704000Y-30948048D01*
X34704000Y-32920385D01*
X34708475Y-32935624D01*
X34709865Y-32936829D01*
X34717548Y-32938500D01*
X36689885Y-32938500D01*
X36705124Y-32934025D01*
X36706329Y-32932635D01*
X36708000Y-32924952D01*
X36708000Y-31954728D01*
X38908200Y-31954728D01*
X38908200Y-33027285D01*
X38912675Y-33042524D01*
X38914065Y-33043729D01*
X38921748Y-33045400D01*
X40444085Y-33045400D01*
X40459324Y-33040925D01*
X40460529Y-33039535D01*
X40462200Y-33031852D01*
X40462200Y-31509515D01*
X40457725Y-31494276D01*
X40456335Y-31493071D01*
X40448652Y-31491400D01*
X39371528Y-31491400D01*
X39364714Y-31491769D01*
X39313849Y-31497295D01*
X39298594Y-31500922D01*
X39178146Y-31546076D01*
X39162551Y-31554614D01*
X39060476Y-31631115D01*
X39047915Y-31643676D01*
X38971414Y-31745751D01*
X38962876Y-31761346D01*
X38917722Y-31881794D01*
X38914095Y-31897049D01*
X38908569Y-31947914D01*
X38908200Y-31954728D01*
X36708000Y-31954728D01*
X36708000Y-31397828D01*
X36707631Y-31391014D01*
X36702105Y-31340149D01*
X36698478Y-31324894D01*
X36653324Y-31204446D01*
X36644786Y-31188851D01*
X36568285Y-31086776D01*
X36555724Y-31074215D01*
X36453649Y-30997714D01*
X36438054Y-30989176D01*
X36317606Y-30944022D01*
X36302351Y-30940395D01*
X36251486Y-30934869D01*
X36244672Y-30934500D01*
X34722115Y-30934500D01*
X34706876Y-30938975D01*
X34705671Y-30940365D01*
X34704000Y-30948048D01*
X34194659Y-30948048D01*
X34191525Y-30937376D01*
X34190135Y-30936171D01*
X34182452Y-30934500D01*
X32655328Y-30934500D01*
X32648514Y-30934869D01*
X32597649Y-30940395D01*
X32582394Y-30944022D01*
X32461946Y-30989176D01*
X32446351Y-30997714D01*
X32344276Y-31074215D01*
X32331715Y-31086776D01*
X32255214Y-31188851D01*
X32242366Y-31212318D01*
X32240300Y-31211187D01*
X32205339Y-31257727D01*
X32138777Y-31282426D01*
X32069429Y-31267218D01*
X32019311Y-31216931D01*
X32004000Y-31156732D01*
X32004000Y-29158200D01*
X32024002Y-29090079D01*
X32077658Y-29043586D01*
X32130000Y-29032200D01*
X42063400Y-29032200D01*
X42131521Y-29052202D01*
G37*
%TD.AperFunction*%
%TD*%
%TA.AperFunction,Conductor*%
%TO.N,/GND*%
G36*
X32140608Y-20774002D02*
G01*
X32187101Y-20827658D01*
X32197205Y-20897932D01*
X32167711Y-20962512D01*
X32161582Y-20969096D01*
X31924917Y-21205760D01*
X31905906Y-21221114D01*
X31904844Y-21222080D01*
X31896096Y-21227729D01*
X31889652Y-21235904D01*
X31889649Y-21235906D01*
X31875171Y-21254272D01*
X31871194Y-21258747D01*
X31871265Y-21258808D01*
X31867912Y-21262765D01*
X31864229Y-21266448D01*
X31861203Y-21270683D01*
X31861201Y-21270685D01*
X31852947Y-21282236D01*
X31849384Y-21286982D01*
X31817466Y-21327470D01*
X31814415Y-21336157D01*
X31809066Y-21343643D01*
X31806083Y-21353619D01*
X31806082Y-21353620D01*
X31794302Y-21393011D01*
X31792472Y-21398643D01*
X31775384Y-21447302D01*
X31774900Y-21452891D01*
X31774900Y-21454270D01*
X31773031Y-21462951D01*
X31770986Y-21462511D01*
X31749135Y-21518504D01*
X31691665Y-21560190D01*
X31620781Y-21564187D01*
X31582185Y-21548048D01*
X31413581Y-21441667D01*
X31225039Y-21366446D01*
X31219379Y-21365320D01*
X31219375Y-21365319D01*
X31031613Y-21327971D01*
X31031610Y-21327971D01*
X31025946Y-21326844D01*
X31020171Y-21326768D01*
X31020167Y-21326768D01*
X30918793Y-21325441D01*
X30822971Y-21324187D01*
X30817274Y-21325166D01*
X30817273Y-21325166D01*
X30651682Y-21353620D01*
X30622910Y-21358564D01*
X30489166Y-21407905D01*
X30462583Y-21417712D01*
X30418972Y-21425500D01*
X28857266Y-21425500D01*
X28810576Y-21416530D01*
X28690411Y-21368589D01*
X28690409Y-21368588D01*
X28685039Y-21366446D01*
X28679371Y-21365319D01*
X28679369Y-21365318D01*
X28491613Y-21327971D01*
X28491610Y-21327971D01*
X28485946Y-21326844D01*
X28480171Y-21326768D01*
X28480167Y-21326768D01*
X28378793Y-21325441D01*
X28282971Y-21324187D01*
X28277274Y-21325166D01*
X28277273Y-21325166D01*
X28111682Y-21353620D01*
X28082910Y-21358564D01*
X27892463Y-21428824D01*
X27718010Y-21532612D01*
X27713670Y-21536418D01*
X27713666Y-21536421D01*
X27613513Y-21624254D01*
X27565392Y-21666455D01*
X27439720Y-21825869D01*
X27437031Y-21830980D01*
X27437029Y-21830983D01*
X27424073Y-21855609D01*
X27345203Y-22005515D01*
X27285007Y-22199378D01*
X27261148Y-22400964D01*
X27274424Y-22603522D01*
X27275845Y-22609118D01*
X27275846Y-22609123D01*
X27294863Y-22684000D01*
X27324392Y-22800269D01*
X27326809Y-22805512D01*
X27395874Y-22955326D01*
X27409377Y-22984616D01*
X27412710Y-22989332D01*
X27447429Y-23038458D01*
X27526533Y-23150389D01*
X27671938Y-23292035D01*
X27676742Y-23295245D01*
X27741129Y-23338267D01*
X27840720Y-23404812D01*
X27846023Y-23407090D01*
X27846026Y-23407092D01*
X28016868Y-23480491D01*
X28027228Y-23484942D01*
X28085997Y-23498240D01*
X28219579Y-23528467D01*
X28219584Y-23528468D01*
X28225216Y-23529742D01*
X28230987Y-23529969D01*
X28230989Y-23529969D01*
X28290756Y-23532317D01*
X28428053Y-23537712D01*
X28528499Y-23523148D01*
X28623231Y-23509413D01*
X28623236Y-23509412D01*
X28628945Y-23508584D01*
X28634409Y-23506729D01*
X28634414Y-23506728D01*
X28821165Y-23443334D01*
X28821418Y-23444080D01*
X28866488Y-23434500D01*
X29061787Y-23434500D01*
X29129908Y-23454502D01*
X29176401Y-23508158D01*
X29186505Y-23578432D01*
X29157011Y-23643012D01*
X29150882Y-23649595D01*
X28971882Y-23828595D01*
X28909570Y-23862621D01*
X28882787Y-23865500D01*
X27469600Y-23865500D01*
X27469155Y-23865544D01*
X27424767Y-23883975D01*
X27387107Y-23899613D01*
X27387106Y-23899614D01*
X27375649Y-23904371D01*
X27344495Y-23935580D01*
X27312887Y-23967243D01*
X27312886Y-23967245D01*
X27304120Y-23976026D01*
X27265456Y-24069599D01*
X27265500Y-24120000D01*
X27265500Y-25870400D01*
X27265544Y-25870845D01*
X27272241Y-25886972D01*
X27297118Y-25946883D01*
X27304371Y-25964351D01*
X27334619Y-25994546D01*
X27367243Y-26027113D01*
X27367245Y-26027114D01*
X27376026Y-26035880D01*
X27469599Y-26074544D01*
X27520000Y-26074500D01*
X29270400Y-26074500D01*
X29270845Y-26074456D01*
X29315233Y-26056025D01*
X29352893Y-26040387D01*
X29352894Y-26040386D01*
X29364351Y-26035629D01*
X29411453Y-25988444D01*
X29427113Y-25972757D01*
X29427114Y-25972755D01*
X29435880Y-25963974D01*
X29474544Y-25870401D01*
X29474500Y-25820000D01*
X29474500Y-24457212D01*
X29494502Y-24389091D01*
X29511405Y-24368117D01*
X29667628Y-24211894D01*
X29729940Y-24177868D01*
X29756723Y-24174989D01*
X29872246Y-24174989D01*
X29940367Y-24194991D01*
X29986860Y-24248647D01*
X29996964Y-24318921D01*
X29979390Y-24365696D01*
X29979720Y-24365869D01*
X29977035Y-24370973D01*
X29977032Y-24370977D01*
X29966591Y-24390822D01*
X29885203Y-24545515D01*
X29825007Y-24739378D01*
X29801148Y-24940964D01*
X29814424Y-25143522D01*
X29815845Y-25149118D01*
X29815846Y-25149123D01*
X29837508Y-25234414D01*
X29864392Y-25340269D01*
X29866809Y-25345512D01*
X29904010Y-25426208D01*
X29949377Y-25524616D01*
X30066533Y-25690389D01*
X30211938Y-25832035D01*
X30380720Y-25944812D01*
X30386023Y-25947090D01*
X30386026Y-25947092D01*
X30561921Y-26022662D01*
X30567228Y-26024942D01*
X30635485Y-26040387D01*
X30759579Y-26068467D01*
X30759584Y-26068468D01*
X30765216Y-26069742D01*
X30770987Y-26069969D01*
X30770989Y-26069969D01*
X30830756Y-26072317D01*
X30968053Y-26077712D01*
X31068499Y-26063148D01*
X31163231Y-26049413D01*
X31163236Y-26049412D01*
X31168945Y-26048584D01*
X31174409Y-26046729D01*
X31174414Y-26046728D01*
X31355693Y-25985192D01*
X31355698Y-25985190D01*
X31361165Y-25983334D01*
X31538276Y-25884147D01*
X31543934Y-25879442D01*
X31665696Y-25778172D01*
X31694345Y-25754345D01*
X31824147Y-25598276D01*
X31923334Y-25421165D01*
X31925190Y-25415698D01*
X31925192Y-25415693D01*
X31986728Y-25234414D01*
X31986729Y-25234409D01*
X31988584Y-25228945D01*
X31989412Y-25223236D01*
X31989413Y-25223231D01*
X32017179Y-25031727D01*
X32017712Y-25028053D01*
X32019232Y-24970000D01*
X32000658Y-24767859D01*
X31999090Y-24762299D01*
X31947125Y-24578046D01*
X31947124Y-24578044D01*
X31945557Y-24572487D01*
X31942917Y-24567132D01*
X31858331Y-24395609D01*
X31855776Y-24390428D01*
X31767054Y-24271615D01*
X31742322Y-24205065D01*
X31757496Y-24135709D01*
X31780217Y-24106733D01*
X31779803Y-24106319D01*
X31780176Y-24105946D01*
X31782306Y-24104068D01*
X31782880Y-24103336D01*
X31783683Y-24102600D01*
X31783785Y-24102545D01*
X31783896Y-24102666D01*
X31784425Y-24102200D01*
X31790168Y-24099101D01*
X31804197Y-24083925D01*
X31826965Y-24059294D01*
X31830395Y-24055727D01*
X32387883Y-23498240D01*
X32406894Y-23482886D01*
X32407956Y-23481920D01*
X32416704Y-23476271D01*
X32418333Y-23474205D01*
X32478100Y-23445136D01*
X32548599Y-23453530D01*
X32579539Y-23472436D01*
X32664435Y-23542917D01*
X32672881Y-23548831D01*
X32856756Y-23656279D01*
X32866042Y-23660729D01*
X33015124Y-23717657D01*
X33071627Y-23760644D01*
X33095920Y-23827355D01*
X33080290Y-23896610D01*
X33029699Y-23946421D01*
X33013785Y-23953579D01*
X32972463Y-23968824D01*
X32798010Y-24072612D01*
X32793670Y-24076418D01*
X32793666Y-24076421D01*
X32681272Y-24174989D01*
X32645392Y-24206455D01*
X32519720Y-24365869D01*
X32517033Y-24370977D01*
X32517029Y-24370983D01*
X32506591Y-24390822D01*
X32425203Y-24545515D01*
X32365007Y-24739378D01*
X32341148Y-24940964D01*
X32354424Y-25143522D01*
X32355845Y-25149118D01*
X32355846Y-25149123D01*
X32377508Y-25234414D01*
X32404392Y-25340269D01*
X32406809Y-25345512D01*
X32444010Y-25426208D01*
X32489377Y-25524616D01*
X32606533Y-25690389D01*
X32751938Y-25832035D01*
X32920720Y-25944812D01*
X32926023Y-25947090D01*
X32926026Y-25947092D01*
X33101921Y-26022662D01*
X33107228Y-26024942D01*
X33175485Y-26040387D01*
X33299579Y-26068467D01*
X33299584Y-26068468D01*
X33305216Y-26069742D01*
X33310987Y-26069969D01*
X33310989Y-26069969D01*
X33370756Y-26072317D01*
X33508053Y-26077712D01*
X33608499Y-26063148D01*
X33703231Y-26049413D01*
X33703236Y-26049412D01*
X33708945Y-26048584D01*
X33714409Y-26046729D01*
X33714414Y-26046728D01*
X33895693Y-25985192D01*
X33895698Y-25985190D01*
X33901165Y-25983334D01*
X34078276Y-25884147D01*
X34083934Y-25879442D01*
X34205696Y-25778172D01*
X34234345Y-25754345D01*
X34364147Y-25598276D01*
X34463334Y-25421165D01*
X34465190Y-25415698D01*
X34465192Y-25415693D01*
X34526728Y-25234414D01*
X34526729Y-25234409D01*
X34528584Y-25228945D01*
X34529412Y-25223236D01*
X34529413Y-25223231D01*
X34557179Y-25031727D01*
X34557712Y-25028053D01*
X34559232Y-24970000D01*
X34540658Y-24767859D01*
X34539090Y-24762299D01*
X34487125Y-24578046D01*
X34487124Y-24578044D01*
X34485557Y-24572487D01*
X34482917Y-24567132D01*
X34398331Y-24395609D01*
X34395776Y-24390428D01*
X34274320Y-24227779D01*
X34125258Y-24089987D01*
X34120375Y-24086906D01*
X34120371Y-24086903D01*
X33958464Y-23984748D01*
X33953581Y-23981667D01*
X33881614Y-23952955D01*
X33825755Y-23909134D01*
X33802455Y-23842069D01*
X33819111Y-23773054D01*
X33870436Y-23724000D01*
X33892098Y-23715239D01*
X33942252Y-23700192D01*
X33951842Y-23696433D01*
X34143095Y-23602739D01*
X34151945Y-23597464D01*
X34325328Y-23473792D01*
X34333200Y-23467139D01*
X34484052Y-23316812D01*
X34490730Y-23308965D01*
X34615003Y-23136020D01*
X34620313Y-23127183D01*
X34714670Y-22936267D01*
X34718469Y-22926672D01*
X34735066Y-22872047D01*
X34774007Y-22812683D01*
X34838862Y-22783796D01*
X34909038Y-22794558D01*
X34962256Y-22841551D01*
X34970048Y-22855922D01*
X35029377Y-22984616D01*
X35032710Y-22989332D01*
X35067429Y-23038458D01*
X35146533Y-23150389D01*
X35291938Y-23292035D01*
X35296742Y-23295245D01*
X35361129Y-23338267D01*
X35460720Y-23404812D01*
X35466023Y-23407090D01*
X35466026Y-23407092D01*
X35636868Y-23480491D01*
X35647228Y-23484942D01*
X35705997Y-23498240D01*
X35839579Y-23528467D01*
X35839584Y-23528468D01*
X35845216Y-23529742D01*
X35850987Y-23529969D01*
X35850989Y-23529969D01*
X35910756Y-23532317D01*
X36048053Y-23537712D01*
X36148499Y-23523148D01*
X36243231Y-23509413D01*
X36243236Y-23509412D01*
X36248945Y-23508584D01*
X36254409Y-23506729D01*
X36254414Y-23506728D01*
X36435693Y-23445192D01*
X36435698Y-23445190D01*
X36441165Y-23443334D01*
X36451490Y-23437552D01*
X36589329Y-23360358D01*
X36618276Y-23344147D01*
X36622723Y-23340449D01*
X36745696Y-23238172D01*
X36774345Y-23214345D01*
X36904147Y-23058276D01*
X37003334Y-22881165D01*
X37005190Y-22875698D01*
X37005192Y-22875693D01*
X37066728Y-22694414D01*
X37066729Y-22694409D01*
X37068584Y-22688945D01*
X37069412Y-22683236D01*
X37069413Y-22683231D01*
X37097179Y-22491727D01*
X37097712Y-22488053D01*
X37099232Y-22430000D01*
X37080658Y-22227859D01*
X37079090Y-22222299D01*
X37027125Y-22038046D01*
X37027124Y-22038044D01*
X37025557Y-22032487D01*
X37014978Y-22011033D01*
X36938331Y-21855609D01*
X36935776Y-21850428D01*
X36894018Y-21794507D01*
X36892063Y-21791889D01*
X36867331Y-21725339D01*
X36882505Y-21655983D01*
X36932767Y-21605841D01*
X36993021Y-21590500D01*
X37525495Y-21590500D01*
X37593616Y-21610502D01*
X37640109Y-21664158D01*
X37650213Y-21734432D01*
X37624444Y-21794507D01*
X37603297Y-21821331D01*
X37603295Y-21821334D01*
X37599720Y-21825869D01*
X37597031Y-21830980D01*
X37597029Y-21830983D01*
X37584073Y-21855609D01*
X37505203Y-22005515D01*
X37445007Y-22199378D01*
X37421148Y-22400964D01*
X37434424Y-22603522D01*
X37435845Y-22609118D01*
X37435846Y-22609123D01*
X37454863Y-22684000D01*
X37484392Y-22800269D01*
X37486809Y-22805512D01*
X37555874Y-22955326D01*
X37569377Y-22984616D01*
X37572710Y-22989332D01*
X37607429Y-23038458D01*
X37686533Y-23150389D01*
X37831938Y-23292035D01*
X37836742Y-23295245D01*
X37901129Y-23338267D01*
X38000720Y-23404812D01*
X38006023Y-23407090D01*
X38006026Y-23407092D01*
X38102954Y-23448735D01*
X38157647Y-23494003D01*
X38179184Y-23561654D01*
X38160727Y-23630210D01*
X38108136Y-23677904D01*
X38092361Y-23684268D01*
X38006868Y-23712212D01*
X37997359Y-23716209D01*
X37808463Y-23814542D01*
X37799738Y-23820036D01*
X37629433Y-23947905D01*
X37621726Y-23954748D01*
X37474590Y-24108717D01*
X37468104Y-24116727D01*
X37348098Y-24292649D01*
X37343000Y-24301623D01*
X37253338Y-24494783D01*
X37249777Y-24504464D01*
X37245291Y-24520640D01*
X37207813Y-24580939D01*
X37143684Y-24611403D01*
X37073266Y-24602360D01*
X37018915Y-24556682D01*
X37010867Y-24542698D01*
X36938331Y-24395609D01*
X36935776Y-24390428D01*
X36814320Y-24227779D01*
X36665258Y-24089987D01*
X36660375Y-24086906D01*
X36660371Y-24086903D01*
X36498464Y-23984748D01*
X36493581Y-23981667D01*
X36305039Y-23906446D01*
X36299379Y-23905320D01*
X36299375Y-23905319D01*
X36111613Y-23867971D01*
X36111610Y-23867971D01*
X36105946Y-23866844D01*
X36100171Y-23866768D01*
X36100167Y-23866768D01*
X35998793Y-23865441D01*
X35902971Y-23864187D01*
X35897274Y-23865166D01*
X35897273Y-23865166D01*
X35708607Y-23897585D01*
X35702910Y-23898564D01*
X35512463Y-23968824D01*
X35338010Y-24072612D01*
X35333670Y-24076418D01*
X35333666Y-24076421D01*
X35221272Y-24174989D01*
X35185392Y-24206455D01*
X35059720Y-24365869D01*
X35057033Y-24370977D01*
X35057029Y-24370983D01*
X35046591Y-24390822D01*
X34965203Y-24545515D01*
X34905007Y-24739378D01*
X34881148Y-24940964D01*
X34894424Y-25143522D01*
X34895845Y-25149118D01*
X34895846Y-25149123D01*
X34917508Y-25234414D01*
X34944392Y-25340269D01*
X34946809Y-25345512D01*
X34984010Y-25426208D01*
X35029377Y-25524616D01*
X35146533Y-25690389D01*
X35291938Y-25832035D01*
X35460720Y-25944812D01*
X35466023Y-25947090D01*
X35466026Y-25947092D01*
X35641921Y-26022662D01*
X35647228Y-26024942D01*
X35715485Y-26040387D01*
X35839579Y-26068467D01*
X35839584Y-26068468D01*
X35845216Y-26069742D01*
X35850987Y-26069969D01*
X35850989Y-26069969D01*
X35910756Y-26072317D01*
X36048053Y-26077712D01*
X36148499Y-26063148D01*
X36243231Y-26049413D01*
X36243236Y-26049412D01*
X36248945Y-26048584D01*
X36254409Y-26046729D01*
X36254414Y-26046728D01*
X36435693Y-25985192D01*
X36435698Y-25985190D01*
X36441165Y-25983334D01*
X36618276Y-25884147D01*
X36623934Y-25879442D01*
X36745696Y-25778172D01*
X36774345Y-25754345D01*
X36904147Y-25598276D01*
X37003334Y-25421165D01*
X37005720Y-25414135D01*
X37006170Y-25413496D01*
X37007541Y-25410416D01*
X37008146Y-25410685D01*
X37046553Y-25356059D01*
X37112305Y-25329278D01*
X37182098Y-25342295D01*
X37233773Y-25390980D01*
X37241777Y-25407229D01*
X37311770Y-25579603D01*
X37316413Y-25588794D01*
X37427694Y-25770388D01*
X37433777Y-25778699D01*
X37573213Y-25939667D01*
X37580580Y-25946883D01*
X37744434Y-26082916D01*
X37752881Y-26088831D01*
X37936756Y-26196279D01*
X37946042Y-26200729D01*
X38145001Y-26276703D01*
X38154899Y-26279579D01*
X38258250Y-26300606D01*
X38272299Y-26299410D01*
X38276000Y-26289065D01*
X38276000Y-24842000D01*
X38296002Y-24773879D01*
X38349658Y-24727386D01*
X38402000Y-24716000D01*
X38658000Y-24716000D01*
X38726121Y-24736002D01*
X38772614Y-24789658D01*
X38784000Y-24842000D01*
X38784000Y-26288517D01*
X38788064Y-26302359D01*
X38801478Y-26304393D01*
X38808184Y-26303534D01*
X38818266Y-26301391D01*
X38889633Y-26279980D01*
X38960628Y-26279564D01*
X39020579Y-26317596D01*
X39051079Y-26386839D01*
X39058113Y-26450553D01*
X39112553Y-26599319D01*
X39200908Y-26730805D01*
X39206527Y-26735918D01*
X39206528Y-26735919D01*
X39217903Y-26746269D01*
X39318076Y-26837419D01*
X39457293Y-26913008D01*
X39610522Y-26953207D01*
X39694477Y-26954526D01*
X39761319Y-26955576D01*
X39761322Y-26955576D01*
X39768916Y-26955695D01*
X39923332Y-26920329D01*
X39993742Y-26884917D01*
X40058072Y-26852563D01*
X40058075Y-26852561D01*
X40064855Y-26849151D01*
X40070626Y-26844222D01*
X40070629Y-26844220D01*
X40179536Y-26751204D01*
X40179536Y-26751203D01*
X40185314Y-26746269D01*
X40277755Y-26617624D01*
X40336842Y-26470641D01*
X40359162Y-26313807D01*
X40359307Y-26300000D01*
X40357918Y-26288517D01*
X40347294Y-26200729D01*
X40340276Y-26142733D01*
X40311451Y-26066450D01*
X40306083Y-25995660D01*
X40339840Y-25933202D01*
X40402005Y-25898910D01*
X40472842Y-25903670D01*
X40499318Y-25917149D01*
X40535911Y-25941599D01*
X40540720Y-25944812D01*
X40546023Y-25947090D01*
X40546026Y-25947092D01*
X40721921Y-26022662D01*
X40727228Y-26024942D01*
X40795485Y-26040387D01*
X40919579Y-26068467D01*
X40919584Y-26068468D01*
X40925216Y-26069742D01*
X40930987Y-26069969D01*
X40930989Y-26069969D01*
X40990756Y-26072317D01*
X41128053Y-26077712D01*
X41228499Y-26063148D01*
X41323231Y-26049413D01*
X41323236Y-26049412D01*
X41328945Y-26048584D01*
X41334409Y-26046729D01*
X41334414Y-26046728D01*
X41515693Y-25985192D01*
X41515698Y-25985190D01*
X41521165Y-25983334D01*
X41698276Y-25884147D01*
X41703934Y-25879442D01*
X41825696Y-25778172D01*
X41854345Y-25754345D01*
X41984147Y-25598276D01*
X42083334Y-25421165D01*
X42085190Y-25415698D01*
X42085192Y-25415693D01*
X42146728Y-25234414D01*
X42146729Y-25234409D01*
X42148584Y-25228945D01*
X42149412Y-25223236D01*
X42149413Y-25223231D01*
X42177179Y-25031727D01*
X42177712Y-25028053D01*
X42179232Y-24970000D01*
X42160658Y-24767859D01*
X42159090Y-24762299D01*
X42107125Y-24578046D01*
X42107124Y-24578044D01*
X42105557Y-24572487D01*
X42102917Y-24567132D01*
X42018331Y-24395609D01*
X42015776Y-24390428D01*
X41894320Y-24227779D01*
X41745258Y-24089987D01*
X41740375Y-24086906D01*
X41740371Y-24086903D01*
X41578464Y-23984748D01*
X41573581Y-23981667D01*
X41385039Y-23906446D01*
X41379379Y-23905320D01*
X41379375Y-23905319D01*
X41191613Y-23867971D01*
X41191610Y-23867971D01*
X41185946Y-23866844D01*
X41180171Y-23866768D01*
X41180167Y-23866768D01*
X41078793Y-23865441D01*
X40982971Y-23864187D01*
X40977274Y-23865166D01*
X40977273Y-23865166D01*
X40788607Y-23897585D01*
X40782910Y-23898564D01*
X40592463Y-23968824D01*
X40418010Y-24072612D01*
X40375458Y-24109929D01*
X40297089Y-24178657D01*
X40232684Y-24208534D01*
X40162352Y-24198848D01*
X40108420Y-24152675D01*
X40088011Y-24083925D01*
X40088011Y-24003701D01*
X40108013Y-23935580D01*
X40124916Y-23914606D01*
X40546085Y-23493437D01*
X40608397Y-23459411D01*
X40684917Y-23466764D01*
X40721925Y-23482664D01*
X40721928Y-23482665D01*
X40727228Y-23484942D01*
X40732857Y-23486216D01*
X40732858Y-23486216D01*
X40919579Y-23528467D01*
X40919584Y-23528468D01*
X40925216Y-23529742D01*
X40930987Y-23529969D01*
X40930989Y-23529969D01*
X40990756Y-23532317D01*
X41128053Y-23537712D01*
X41228499Y-23523148D01*
X41323231Y-23509413D01*
X41323236Y-23509412D01*
X41328945Y-23508584D01*
X41334409Y-23506729D01*
X41334414Y-23506728D01*
X41515693Y-23445192D01*
X41515698Y-23445190D01*
X41521165Y-23443334D01*
X41531490Y-23437552D01*
X41669329Y-23360358D01*
X41698276Y-23344147D01*
X41702723Y-23340449D01*
X41825696Y-23238172D01*
X41854345Y-23214345D01*
X41984147Y-23058276D01*
X42083334Y-22881165D01*
X42085720Y-22874135D01*
X42086170Y-22873496D01*
X42087541Y-22870416D01*
X42088146Y-22870685D01*
X42126553Y-22816059D01*
X42192305Y-22789278D01*
X42262098Y-22802295D01*
X42313773Y-22850980D01*
X42321777Y-22867229D01*
X42391770Y-23039603D01*
X42396413Y-23048794D01*
X42507694Y-23230388D01*
X42513777Y-23238699D01*
X42653213Y-23399667D01*
X42660580Y-23406883D01*
X42824434Y-23542916D01*
X42832881Y-23548831D01*
X43016756Y-23656279D01*
X43026042Y-23660729D01*
X43175124Y-23717657D01*
X43231627Y-23760644D01*
X43255920Y-23827355D01*
X43240290Y-23896610D01*
X43189699Y-23946421D01*
X43173785Y-23953579D01*
X43132463Y-23968824D01*
X42958010Y-24072612D01*
X42953670Y-24076418D01*
X42953666Y-24076421D01*
X42841272Y-24174989D01*
X42805392Y-24206455D01*
X42679720Y-24365869D01*
X42677033Y-24370977D01*
X42677029Y-24370983D01*
X42666591Y-24390822D01*
X42585203Y-24545515D01*
X42525007Y-24739378D01*
X42501148Y-24940964D01*
X42514424Y-25143522D01*
X42515845Y-25149118D01*
X42515846Y-25149123D01*
X42537508Y-25234414D01*
X42564392Y-25340269D01*
X42566809Y-25345512D01*
X42604010Y-25426208D01*
X42649377Y-25524616D01*
X42766533Y-25690389D01*
X42911938Y-25832035D01*
X43080720Y-25944812D01*
X43086023Y-25947090D01*
X43086026Y-25947092D01*
X43261921Y-26022662D01*
X43267228Y-26024942D01*
X43335485Y-26040387D01*
X43459579Y-26068467D01*
X43459584Y-26068468D01*
X43465216Y-26069742D01*
X43470987Y-26069969D01*
X43470989Y-26069969D01*
X43530756Y-26072317D01*
X43668053Y-26077712D01*
X43768499Y-26063148D01*
X43863231Y-26049413D01*
X43863236Y-26049412D01*
X43868945Y-26048584D01*
X43874409Y-26046729D01*
X43874414Y-26046728D01*
X44055693Y-25985192D01*
X44055698Y-25985190D01*
X44061165Y-25983334D01*
X44238276Y-25884147D01*
X44243934Y-25879442D01*
X44365696Y-25778172D01*
X44394345Y-25754345D01*
X44524147Y-25598276D01*
X44623334Y-25421165D01*
X44625190Y-25415698D01*
X44625192Y-25415693D01*
X44686728Y-25234414D01*
X44686729Y-25234409D01*
X44688584Y-25228945D01*
X44689412Y-25223236D01*
X44689413Y-25223231D01*
X44717179Y-25031727D01*
X44717712Y-25028053D01*
X44719232Y-24970000D01*
X44716564Y-24940964D01*
X45041148Y-24940964D01*
X45054424Y-25143522D01*
X45055845Y-25149118D01*
X45055846Y-25149123D01*
X45077508Y-25234414D01*
X45104392Y-25340269D01*
X45106809Y-25345512D01*
X45144010Y-25426208D01*
X45189377Y-25524616D01*
X45306533Y-25690389D01*
X45451938Y-25832035D01*
X45620720Y-25944812D01*
X45626023Y-25947090D01*
X45626026Y-25947092D01*
X45801921Y-26022662D01*
X45807228Y-26024942D01*
X45875485Y-26040387D01*
X45999579Y-26068467D01*
X45999584Y-26068468D01*
X46005216Y-26069742D01*
X46010987Y-26069969D01*
X46010989Y-26069969D01*
X46070756Y-26072317D01*
X46208053Y-26077712D01*
X46308499Y-26063148D01*
X46403231Y-26049413D01*
X46403236Y-26049412D01*
X46408945Y-26048584D01*
X46414409Y-26046729D01*
X46414414Y-26046728D01*
X46595693Y-25985192D01*
X46595698Y-25985190D01*
X46601165Y-25983334D01*
X46778276Y-25884147D01*
X46783934Y-25879442D01*
X46905696Y-25778172D01*
X46934345Y-25754345D01*
X47064147Y-25598276D01*
X47163334Y-25421165D01*
X47165190Y-25415698D01*
X47165192Y-25415693D01*
X47226728Y-25234414D01*
X47226729Y-25234409D01*
X47228584Y-25228945D01*
X47229412Y-25223236D01*
X47229413Y-25223231D01*
X47257179Y-25031727D01*
X47257712Y-25028053D01*
X47259232Y-24970000D01*
X47240658Y-24767859D01*
X47239090Y-24762299D01*
X47187125Y-24578046D01*
X47187124Y-24578044D01*
X47185557Y-24572487D01*
X47182917Y-24567132D01*
X47098331Y-24395609D01*
X47095776Y-24390428D01*
X46974320Y-24227779D01*
X46825258Y-24089987D01*
X46820375Y-24086906D01*
X46820371Y-24086903D01*
X46658464Y-23984748D01*
X46653581Y-23981667D01*
X46465039Y-23906446D01*
X46459379Y-23905320D01*
X46459375Y-23905319D01*
X46271613Y-23867971D01*
X46271610Y-23867971D01*
X46265946Y-23866844D01*
X46260171Y-23866768D01*
X46260167Y-23866768D01*
X46158793Y-23865441D01*
X46062971Y-23864187D01*
X46057274Y-23865166D01*
X46057273Y-23865166D01*
X45868607Y-23897585D01*
X45862910Y-23898564D01*
X45672463Y-23968824D01*
X45498010Y-24072612D01*
X45493670Y-24076418D01*
X45493666Y-24076421D01*
X45381272Y-24174989D01*
X45345392Y-24206455D01*
X45219720Y-24365869D01*
X45217033Y-24370977D01*
X45217029Y-24370983D01*
X45206591Y-24390822D01*
X45125203Y-24545515D01*
X45065007Y-24739378D01*
X45041148Y-24940964D01*
X44716564Y-24940964D01*
X44700658Y-24767859D01*
X44699090Y-24762299D01*
X44647125Y-24578046D01*
X44647124Y-24578044D01*
X44645557Y-24572487D01*
X44642917Y-24567132D01*
X44558331Y-24395609D01*
X44555776Y-24390428D01*
X44434320Y-24227779D01*
X44285258Y-24089987D01*
X44280375Y-24086906D01*
X44280371Y-24086903D01*
X44118464Y-23984748D01*
X44113581Y-23981667D01*
X44041614Y-23952955D01*
X43985755Y-23909134D01*
X43962455Y-23842069D01*
X43979111Y-23773054D01*
X44030436Y-23724000D01*
X44052098Y-23715239D01*
X44102252Y-23700192D01*
X44111842Y-23696433D01*
X44303095Y-23602739D01*
X44311945Y-23597464D01*
X44485328Y-23473792D01*
X44493200Y-23467139D01*
X44644052Y-23316812D01*
X44650730Y-23308965D01*
X44775003Y-23136020D01*
X44780313Y-23127183D01*
X44874670Y-22936267D01*
X44878469Y-22926672D01*
X44895066Y-22872047D01*
X44934007Y-22812683D01*
X44998862Y-22783796D01*
X45069038Y-22794558D01*
X45122256Y-22841551D01*
X45130048Y-22855922D01*
X45189377Y-22984616D01*
X45192710Y-22989332D01*
X45227429Y-23038458D01*
X45306533Y-23150389D01*
X45451938Y-23292035D01*
X45456742Y-23295245D01*
X45521129Y-23338267D01*
X45620720Y-23404812D01*
X45626023Y-23407090D01*
X45626026Y-23407092D01*
X45796868Y-23480491D01*
X45807228Y-23484942D01*
X45865997Y-23498240D01*
X45999579Y-23528467D01*
X45999584Y-23528468D01*
X46005216Y-23529742D01*
X46010987Y-23529969D01*
X46010989Y-23529969D01*
X46070756Y-23532317D01*
X46208053Y-23537712D01*
X46308499Y-23523148D01*
X46403231Y-23509413D01*
X46403236Y-23509412D01*
X46408945Y-23508584D01*
X46414409Y-23506729D01*
X46414414Y-23506728D01*
X46595693Y-23445192D01*
X46595698Y-23445190D01*
X46601165Y-23443334D01*
X46611490Y-23437552D01*
X46749329Y-23360358D01*
X46778276Y-23344147D01*
X46782718Y-23340453D01*
X46782724Y-23340449D01*
X46925420Y-23221769D01*
X46990584Y-23193588D01*
X47060639Y-23205112D01*
X47113343Y-23252680D01*
X47131989Y-23318643D01*
X47131989Y-23739354D01*
X47129403Y-23763653D01*
X47129335Y-23765091D01*
X47127144Y-23775269D01*
X47128368Y-23785609D01*
X47131116Y-23808831D01*
X47131468Y-23814809D01*
X47131561Y-23814801D01*
X47131989Y-23819979D01*
X47131989Y-23825181D01*
X47132843Y-23830311D01*
X47135175Y-23844321D01*
X47136011Y-23850193D01*
X47142071Y-23901396D01*
X47146056Y-23909695D01*
X47147567Y-23918772D01*
X47172047Y-23964140D01*
X47174728Y-23969403D01*
X47193616Y-24008739D01*
X47193619Y-24008743D01*
X47197049Y-24015887D01*
X47200659Y-24020181D01*
X47202591Y-24022113D01*
X47204378Y-24024062D01*
X47204407Y-24024115D01*
X47204277Y-24024234D01*
X47204778Y-24024802D01*
X47207877Y-24030546D01*
X47215522Y-24037613D01*
X47247698Y-24067356D01*
X47251264Y-24070786D01*
X47625807Y-24445329D01*
X47659833Y-24507641D01*
X47657045Y-24571788D01*
X47605007Y-24739378D01*
X47581148Y-24940964D01*
X47594424Y-25143522D01*
X47595845Y-25149118D01*
X47595846Y-25149123D01*
X47617508Y-25234414D01*
X47644392Y-25340269D01*
X47646809Y-25345512D01*
X47684010Y-25426208D01*
X47729377Y-25524616D01*
X47846533Y-25690389D01*
X47991938Y-25832035D01*
X48160720Y-25944812D01*
X48166023Y-25947090D01*
X48166026Y-25947092D01*
X48341921Y-26022662D01*
X48347228Y-26024942D01*
X48415485Y-26040387D01*
X48539579Y-26068467D01*
X48539584Y-26068468D01*
X48545216Y-26069742D01*
X48550987Y-26069969D01*
X48550989Y-26069969D01*
X48610756Y-26072317D01*
X48748053Y-26077712D01*
X48848499Y-26063148D01*
X48943231Y-26049413D01*
X48943236Y-26049412D01*
X48948945Y-26048584D01*
X48954409Y-26046729D01*
X48954414Y-26046728D01*
X49135693Y-25985192D01*
X49135698Y-25985190D01*
X49141165Y-25983334D01*
X49318276Y-25884147D01*
X49323934Y-25879442D01*
X49445696Y-25778172D01*
X49474345Y-25754345D01*
X49604147Y-25598276D01*
X49703334Y-25421165D01*
X49705190Y-25415698D01*
X49705192Y-25415693D01*
X49766728Y-25234414D01*
X49766729Y-25234409D01*
X49768584Y-25228945D01*
X49769412Y-25223236D01*
X49769413Y-25223231D01*
X49797179Y-25031727D01*
X49797712Y-25028053D01*
X49799232Y-24970000D01*
X49780658Y-24767859D01*
X49779090Y-24762299D01*
X49727125Y-24578046D01*
X49727124Y-24578044D01*
X49725557Y-24572487D01*
X49722917Y-24567132D01*
X49638331Y-24395609D01*
X49635776Y-24390428D01*
X49514320Y-24227779D01*
X49365258Y-24089987D01*
X49360375Y-24086906D01*
X49360371Y-24086903D01*
X49198464Y-23984748D01*
X49193581Y-23981667D01*
X49005039Y-23906446D01*
X48999379Y-23905320D01*
X48999375Y-23905319D01*
X48811613Y-23867971D01*
X48811610Y-23867971D01*
X48805946Y-23866844D01*
X48800171Y-23866768D01*
X48800167Y-23866768D01*
X48698793Y-23865441D01*
X48602971Y-23864187D01*
X48597274Y-23865166D01*
X48597273Y-23865166D01*
X48408607Y-23897585D01*
X48402910Y-23898564D01*
X48349549Y-23918250D01*
X48299738Y-23936626D01*
X48228904Y-23941438D01*
X48167032Y-23907509D01*
X47931894Y-23672371D01*
X47897868Y-23610059D01*
X47894989Y-23583276D01*
X47894989Y-23462985D01*
X47914991Y-23394864D01*
X47968647Y-23348371D01*
X48038921Y-23338267D01*
X48090990Y-23358219D01*
X48160720Y-23404812D01*
X48166023Y-23407090D01*
X48166026Y-23407092D01*
X48336868Y-23480491D01*
X48347228Y-23484942D01*
X48405997Y-23498240D01*
X48539579Y-23528467D01*
X48539584Y-23528468D01*
X48545216Y-23529742D01*
X48550987Y-23529969D01*
X48550989Y-23529969D01*
X48610756Y-23532317D01*
X48748053Y-23537712D01*
X48848499Y-23523148D01*
X48943231Y-23509413D01*
X48943236Y-23509412D01*
X48948945Y-23508584D01*
X48954409Y-23506729D01*
X48954414Y-23506728D01*
X49135693Y-23445192D01*
X49135698Y-23445190D01*
X49141165Y-23443334D01*
X49151490Y-23437552D01*
X49289329Y-23360358D01*
X49318276Y-23344147D01*
X49322723Y-23340449D01*
X49445696Y-23238172D01*
X49474345Y-23214345D01*
X49604147Y-23058276D01*
X49703334Y-22881165D01*
X49705720Y-22874135D01*
X49706170Y-22873496D01*
X49707541Y-22870416D01*
X49708146Y-22870685D01*
X49746553Y-22816059D01*
X49812305Y-22789278D01*
X49882098Y-22802295D01*
X49933773Y-22850980D01*
X49941777Y-22867229D01*
X50011770Y-23039603D01*
X50016413Y-23048794D01*
X50127694Y-23230388D01*
X50133777Y-23238699D01*
X50273213Y-23399667D01*
X50280580Y-23406883D01*
X50444434Y-23542916D01*
X50452881Y-23548831D01*
X50636756Y-23656279D01*
X50646042Y-23660729D01*
X50795124Y-23717657D01*
X50851627Y-23760644D01*
X50875920Y-23827355D01*
X50860290Y-23896610D01*
X50809699Y-23946421D01*
X50793785Y-23953579D01*
X50752463Y-23968824D01*
X50578010Y-24072612D01*
X50573670Y-24076418D01*
X50573666Y-24076421D01*
X50461272Y-24174989D01*
X50425392Y-24206455D01*
X50299720Y-24365869D01*
X50297033Y-24370977D01*
X50297029Y-24370983D01*
X50286591Y-24390822D01*
X50205203Y-24545515D01*
X50145007Y-24739378D01*
X50121148Y-24940964D01*
X50134424Y-25143522D01*
X50135845Y-25149118D01*
X50135846Y-25149123D01*
X50157508Y-25234414D01*
X50184392Y-25340269D01*
X50186809Y-25345512D01*
X50224010Y-25426208D01*
X50269377Y-25524616D01*
X50386533Y-25690389D01*
X50531938Y-25832035D01*
X50700720Y-25944812D01*
X50706023Y-25947090D01*
X50706026Y-25947092D01*
X50881921Y-26022662D01*
X50887228Y-26024942D01*
X50955485Y-26040387D01*
X51079579Y-26068467D01*
X51079584Y-26068468D01*
X51085216Y-26069742D01*
X51090987Y-26069969D01*
X51090989Y-26069969D01*
X51150756Y-26072317D01*
X51288053Y-26077712D01*
X51388499Y-26063148D01*
X51483231Y-26049413D01*
X51483236Y-26049412D01*
X51488945Y-26048584D01*
X51494409Y-26046729D01*
X51494414Y-26046728D01*
X51675693Y-25985192D01*
X51675698Y-25985190D01*
X51681165Y-25983334D01*
X51858276Y-25884147D01*
X51863934Y-25879442D01*
X51985696Y-25778172D01*
X52014345Y-25754345D01*
X52144147Y-25598276D01*
X52243334Y-25421165D01*
X52245190Y-25415698D01*
X52245192Y-25415693D01*
X52306728Y-25234414D01*
X52306729Y-25234409D01*
X52308584Y-25228945D01*
X52309412Y-25223236D01*
X52309413Y-25223231D01*
X52337179Y-25031727D01*
X52337712Y-25028053D01*
X52339232Y-24970000D01*
X52336564Y-24940964D01*
X52661148Y-24940964D01*
X52674424Y-25143522D01*
X52675845Y-25149118D01*
X52675846Y-25149123D01*
X52697508Y-25234414D01*
X52724392Y-25340269D01*
X52726809Y-25345512D01*
X52764010Y-25426208D01*
X52809377Y-25524616D01*
X52926533Y-25690389D01*
X53071938Y-25832035D01*
X53240720Y-25944812D01*
X53246023Y-25947090D01*
X53246026Y-25947092D01*
X53421921Y-26022662D01*
X53427228Y-26024942D01*
X53495485Y-26040387D01*
X53619579Y-26068467D01*
X53619584Y-26068468D01*
X53625216Y-26069742D01*
X53630987Y-26069969D01*
X53630989Y-26069969D01*
X53690756Y-26072317D01*
X53828053Y-26077712D01*
X53928499Y-26063148D01*
X54023231Y-26049413D01*
X54023236Y-26049412D01*
X54028945Y-26048584D01*
X54034409Y-26046729D01*
X54034414Y-26046728D01*
X54215693Y-25985192D01*
X54215698Y-25985190D01*
X54221165Y-25983334D01*
X54398276Y-25884147D01*
X54403934Y-25879442D01*
X54525696Y-25778172D01*
X54554345Y-25754345D01*
X54684147Y-25598276D01*
X54783334Y-25421165D01*
X54785190Y-25415698D01*
X54785192Y-25415693D01*
X54846728Y-25234414D01*
X54846729Y-25234409D01*
X54848584Y-25228945D01*
X54849412Y-25223236D01*
X54849413Y-25223231D01*
X54877179Y-25031727D01*
X54877712Y-25028053D01*
X54879232Y-24970000D01*
X54876564Y-24940964D01*
X55201148Y-24940964D01*
X55214424Y-25143522D01*
X55215845Y-25149118D01*
X55215846Y-25149123D01*
X55237508Y-25234414D01*
X55264392Y-25340269D01*
X55266809Y-25345512D01*
X55304010Y-25426208D01*
X55349377Y-25524616D01*
X55466533Y-25690389D01*
X55611938Y-25832035D01*
X55780720Y-25944812D01*
X55786023Y-25947090D01*
X55786026Y-25947092D01*
X55961921Y-26022662D01*
X55967228Y-26024942D01*
X56035485Y-26040387D01*
X56159579Y-26068467D01*
X56159584Y-26068468D01*
X56165216Y-26069742D01*
X56170987Y-26069969D01*
X56170989Y-26069969D01*
X56230756Y-26072317D01*
X56368053Y-26077712D01*
X56468499Y-26063148D01*
X56563231Y-26049413D01*
X56563236Y-26049412D01*
X56568945Y-26048584D01*
X56574409Y-26046729D01*
X56574414Y-26046728D01*
X56755693Y-25985192D01*
X56755698Y-25985190D01*
X56761165Y-25983334D01*
X56938276Y-25884147D01*
X56943934Y-25879442D01*
X57065696Y-25778172D01*
X57094345Y-25754345D01*
X57224147Y-25598276D01*
X57323334Y-25421165D01*
X57325720Y-25414135D01*
X57326170Y-25413496D01*
X57327541Y-25410416D01*
X57328146Y-25410685D01*
X57366553Y-25356059D01*
X57432305Y-25329278D01*
X57502098Y-25342295D01*
X57553773Y-25390980D01*
X57561777Y-25407229D01*
X57631770Y-25579603D01*
X57636413Y-25588794D01*
X57747694Y-25770388D01*
X57753777Y-25778699D01*
X57893213Y-25939667D01*
X57900580Y-25946883D01*
X58064434Y-26082916D01*
X58072881Y-26088831D01*
X58256756Y-26196279D01*
X58266042Y-26200729D01*
X58465001Y-26276703D01*
X58474899Y-26279579D01*
X58578250Y-26300606D01*
X58592299Y-26299410D01*
X58596000Y-26289065D01*
X58596000Y-24842000D01*
X58616002Y-24773879D01*
X58669658Y-24727386D01*
X58722000Y-24716000D01*
X58978000Y-24716000D01*
X59046121Y-24736002D01*
X59092614Y-24789658D01*
X59104000Y-24842000D01*
X59104000Y-26288517D01*
X59108064Y-26302359D01*
X59121478Y-26304393D01*
X59128184Y-26303534D01*
X59138262Y-26301392D01*
X59342255Y-26240191D01*
X59351842Y-26236433D01*
X59543095Y-26142739D01*
X59551945Y-26137464D01*
X59725328Y-26013792D01*
X59733200Y-26007139D01*
X59884052Y-25856812D01*
X59890730Y-25848965D01*
X60015003Y-25676020D01*
X60020313Y-25667183D01*
X60114670Y-25476267D01*
X60118469Y-25466672D01*
X60135066Y-25412047D01*
X60174007Y-25352683D01*
X60238862Y-25323796D01*
X60309038Y-25334558D01*
X60362256Y-25381551D01*
X60370048Y-25395922D01*
X60429377Y-25524616D01*
X60546533Y-25690389D01*
X60691938Y-25832035D01*
X60860720Y-25944812D01*
X60866023Y-25947090D01*
X60866026Y-25947092D01*
X61041921Y-26022662D01*
X61047228Y-26024942D01*
X61115485Y-26040387D01*
X61239579Y-26068467D01*
X61239584Y-26068468D01*
X61245216Y-26069742D01*
X61250987Y-26069969D01*
X61250989Y-26069969D01*
X61310756Y-26072317D01*
X61448053Y-26077712D01*
X61548499Y-26063148D01*
X61643231Y-26049413D01*
X61643236Y-26049412D01*
X61648945Y-26048584D01*
X61654409Y-26046729D01*
X61654414Y-26046728D01*
X61835693Y-25985192D01*
X61835698Y-25985190D01*
X61841165Y-25983334D01*
X62018276Y-25884147D01*
X62023934Y-25879442D01*
X62145696Y-25778172D01*
X62174345Y-25754345D01*
X62304147Y-25598276D01*
X62403334Y-25421165D01*
X62405190Y-25415698D01*
X62405192Y-25415693D01*
X62466728Y-25234414D01*
X62466729Y-25234409D01*
X62468584Y-25228945D01*
X62469412Y-25223236D01*
X62469413Y-25223231D01*
X62497179Y-25031727D01*
X62497712Y-25028053D01*
X62499232Y-24970000D01*
X62480658Y-24767859D01*
X62479090Y-24762299D01*
X62427125Y-24578046D01*
X62427124Y-24578044D01*
X62425557Y-24572487D01*
X62422917Y-24567132D01*
X62338331Y-24395609D01*
X62335776Y-24390428D01*
X62214320Y-24227779D01*
X62065258Y-24089987D01*
X62060375Y-24086906D01*
X62060371Y-24086903D01*
X61898464Y-23984748D01*
X61893581Y-23981667D01*
X61705039Y-23906446D01*
X61699379Y-23905320D01*
X61699375Y-23905319D01*
X61511613Y-23867971D01*
X61511610Y-23867971D01*
X61505946Y-23866844D01*
X61500171Y-23866768D01*
X61500167Y-23866768D01*
X61398793Y-23865441D01*
X61302971Y-23864187D01*
X61297274Y-23865166D01*
X61297273Y-23865166D01*
X61108607Y-23897585D01*
X61102910Y-23898564D01*
X60912463Y-23968824D01*
X60738010Y-24072612D01*
X60733670Y-24076418D01*
X60733666Y-24076421D01*
X60621272Y-24174989D01*
X60585392Y-24206455D01*
X60459720Y-24365869D01*
X60457033Y-24370977D01*
X60457029Y-24370983D01*
X60367589Y-24540980D01*
X60318170Y-24591952D01*
X60249037Y-24608115D01*
X60182141Y-24584336D01*
X60142003Y-24529973D01*
X60139955Y-24530863D01*
X60052972Y-24330814D01*
X60048105Y-24321739D01*
X59932426Y-24142926D01*
X59926136Y-24134757D01*
X59782806Y-23977240D01*
X59775273Y-23970215D01*
X59608139Y-23838222D01*
X59599552Y-23832517D01*
X59413117Y-23729599D01*
X59403705Y-23725369D01*
X59289391Y-23684888D01*
X59231855Y-23643294D01*
X59205939Y-23577196D01*
X59219873Y-23507580D01*
X59269232Y-23456549D01*
X59290943Y-23446804D01*
X59301165Y-23443334D01*
X59311490Y-23437552D01*
X59449329Y-23360358D01*
X59478276Y-23344147D01*
X59482723Y-23340449D01*
X59605696Y-23238172D01*
X59634345Y-23214345D01*
X59764147Y-23058276D01*
X59863334Y-22881165D01*
X59865190Y-22875698D01*
X59865192Y-22875693D01*
X59926728Y-22694414D01*
X59926729Y-22694409D01*
X59928584Y-22688945D01*
X59929412Y-22683236D01*
X59929413Y-22683231D01*
X59957179Y-22491727D01*
X59957712Y-22488053D01*
X59959232Y-22430000D01*
X59956564Y-22400964D01*
X60281148Y-22400964D01*
X60294424Y-22603522D01*
X60295845Y-22609118D01*
X60295846Y-22609123D01*
X60314863Y-22684000D01*
X60344392Y-22800269D01*
X60346809Y-22805512D01*
X60415874Y-22955326D01*
X60429377Y-22984616D01*
X60432710Y-22989332D01*
X60467429Y-23038458D01*
X60546533Y-23150389D01*
X60691938Y-23292035D01*
X60696742Y-23295245D01*
X60761129Y-23338267D01*
X60860720Y-23404812D01*
X60866023Y-23407090D01*
X60866026Y-23407092D01*
X61036868Y-23480491D01*
X61047228Y-23484942D01*
X61105997Y-23498240D01*
X61239579Y-23528467D01*
X61239584Y-23528468D01*
X61245216Y-23529742D01*
X61250987Y-23529969D01*
X61250989Y-23529969D01*
X61310756Y-23532317D01*
X61448053Y-23537712D01*
X61548499Y-23523148D01*
X61643231Y-23509413D01*
X61643236Y-23509412D01*
X61648945Y-23508584D01*
X61654409Y-23506729D01*
X61654414Y-23506728D01*
X61835693Y-23445192D01*
X61835698Y-23445190D01*
X61841165Y-23443334D01*
X61851490Y-23437552D01*
X61989329Y-23360358D01*
X62018276Y-23344147D01*
X62022723Y-23340449D01*
X62145696Y-23238172D01*
X62174345Y-23214345D01*
X62304147Y-23058276D01*
X62403334Y-22881165D01*
X62405720Y-22874135D01*
X62406170Y-22873496D01*
X62407541Y-22870416D01*
X62408146Y-22870685D01*
X62446553Y-22816059D01*
X62512305Y-22789278D01*
X62582098Y-22802295D01*
X62633773Y-22850980D01*
X62641777Y-22867229D01*
X62711770Y-23039603D01*
X62716413Y-23048794D01*
X62827694Y-23230388D01*
X62833777Y-23238699D01*
X62973213Y-23399667D01*
X62980580Y-23406883D01*
X63144434Y-23542916D01*
X63152881Y-23548831D01*
X63336756Y-23656279D01*
X63346042Y-23660729D01*
X63495124Y-23717657D01*
X63551627Y-23760644D01*
X63575920Y-23827355D01*
X63560290Y-23896610D01*
X63509699Y-23946421D01*
X63493785Y-23953579D01*
X63452463Y-23968824D01*
X63278010Y-24072612D01*
X63273670Y-24076418D01*
X63273666Y-24076421D01*
X63161272Y-24174989D01*
X63125392Y-24206455D01*
X62999720Y-24365869D01*
X62997033Y-24370977D01*
X62997029Y-24370983D01*
X62986591Y-24390822D01*
X62905203Y-24545515D01*
X62845007Y-24739378D01*
X62821148Y-24940964D01*
X62834424Y-25143522D01*
X62835845Y-25149118D01*
X62835846Y-25149123D01*
X62857508Y-25234414D01*
X62884392Y-25340269D01*
X62886809Y-25345512D01*
X62924010Y-25426208D01*
X62969377Y-25524616D01*
X63086533Y-25690389D01*
X63231938Y-25832035D01*
X63400720Y-25944812D01*
X63406023Y-25947090D01*
X63406026Y-25947092D01*
X63581921Y-26022662D01*
X63587228Y-26024942D01*
X63655485Y-26040387D01*
X63779579Y-26068467D01*
X63779584Y-26068468D01*
X63785216Y-26069742D01*
X63790987Y-26069969D01*
X63790989Y-26069969D01*
X63850756Y-26072317D01*
X63988053Y-26077712D01*
X64088499Y-26063148D01*
X64183231Y-26049413D01*
X64183236Y-26049412D01*
X64188945Y-26048584D01*
X64194409Y-26046729D01*
X64194414Y-26046728D01*
X64375693Y-25985192D01*
X64375698Y-25985190D01*
X64381165Y-25983334D01*
X64558276Y-25884147D01*
X64563934Y-25879442D01*
X64685696Y-25778172D01*
X64714345Y-25754345D01*
X64844147Y-25598276D01*
X64943334Y-25421165D01*
X64945190Y-25415698D01*
X64945192Y-25415693D01*
X65006728Y-25234414D01*
X65006729Y-25234409D01*
X65008584Y-25228945D01*
X65009412Y-25223236D01*
X65009413Y-25223231D01*
X65037179Y-25031727D01*
X65037712Y-25028053D01*
X65039232Y-24970000D01*
X65036564Y-24940964D01*
X65361148Y-24940964D01*
X65374424Y-25143522D01*
X65375845Y-25149118D01*
X65375846Y-25149123D01*
X65397508Y-25234414D01*
X65424392Y-25340269D01*
X65426809Y-25345512D01*
X65464010Y-25426208D01*
X65509377Y-25524616D01*
X65626533Y-25690389D01*
X65771938Y-25832035D01*
X65940720Y-25944812D01*
X65946023Y-25947090D01*
X65946026Y-25947092D01*
X66121921Y-26022662D01*
X66127228Y-26024942D01*
X66195485Y-26040387D01*
X66319579Y-26068467D01*
X66319584Y-26068468D01*
X66325216Y-26069742D01*
X66330987Y-26069969D01*
X66330989Y-26069969D01*
X66390756Y-26072317D01*
X66528053Y-26077712D01*
X66628499Y-26063148D01*
X66723231Y-26049413D01*
X66723236Y-26049412D01*
X66728945Y-26048584D01*
X66734409Y-26046729D01*
X66734414Y-26046728D01*
X66915693Y-25985192D01*
X66915698Y-25985190D01*
X66921165Y-25983334D01*
X67098276Y-25884147D01*
X67103934Y-25879442D01*
X67225696Y-25778172D01*
X67254345Y-25754345D01*
X67384147Y-25598276D01*
X67483334Y-25421165D01*
X67485190Y-25415698D01*
X67485192Y-25415693D01*
X67546728Y-25234414D01*
X67546729Y-25234409D01*
X67548584Y-25228945D01*
X67549412Y-25223236D01*
X67549413Y-25223231D01*
X67577179Y-25031727D01*
X67577712Y-25028053D01*
X67579232Y-24970000D01*
X67560658Y-24767859D01*
X67559090Y-24762299D01*
X67507125Y-24578046D01*
X67507124Y-24578044D01*
X67505557Y-24572487D01*
X67502917Y-24567132D01*
X67418331Y-24395609D01*
X67415776Y-24390428D01*
X67294320Y-24227779D01*
X67145258Y-24089987D01*
X67140375Y-24086906D01*
X67140371Y-24086903D01*
X66978464Y-23984748D01*
X66973581Y-23981667D01*
X66785039Y-23906446D01*
X66779379Y-23905320D01*
X66779375Y-23905319D01*
X66591613Y-23867971D01*
X66591610Y-23867971D01*
X66585946Y-23866844D01*
X66580171Y-23866768D01*
X66580167Y-23866768D01*
X66478793Y-23865441D01*
X66382971Y-23864187D01*
X66377274Y-23865166D01*
X66377273Y-23865166D01*
X66188607Y-23897585D01*
X66182910Y-23898564D01*
X65992463Y-23968824D01*
X65818010Y-24072612D01*
X65813670Y-24076418D01*
X65813666Y-24076421D01*
X65701272Y-24174989D01*
X65665392Y-24206455D01*
X65539720Y-24365869D01*
X65537033Y-24370977D01*
X65537029Y-24370983D01*
X65526591Y-24390822D01*
X65445203Y-24545515D01*
X65385007Y-24739378D01*
X65361148Y-24940964D01*
X65036564Y-24940964D01*
X65020658Y-24767859D01*
X65019090Y-24762299D01*
X64967125Y-24578046D01*
X64967124Y-24578044D01*
X64965557Y-24572487D01*
X64962917Y-24567132D01*
X64878331Y-24395609D01*
X64875776Y-24390428D01*
X64754320Y-24227779D01*
X64605258Y-24089987D01*
X64600375Y-24086906D01*
X64600371Y-24086903D01*
X64438464Y-23984748D01*
X64433581Y-23981667D01*
X64361614Y-23952955D01*
X64305755Y-23909134D01*
X64282455Y-23842069D01*
X64299111Y-23773054D01*
X64350436Y-23724000D01*
X64372098Y-23715239D01*
X64422252Y-23700192D01*
X64431842Y-23696433D01*
X64623095Y-23602739D01*
X64631945Y-23597464D01*
X64805328Y-23473792D01*
X64813200Y-23467139D01*
X64964052Y-23316812D01*
X64970730Y-23308965D01*
X65095003Y-23136020D01*
X65100313Y-23127183D01*
X65194670Y-22936267D01*
X65198469Y-22926672D01*
X65215066Y-22872047D01*
X65254007Y-22812683D01*
X65318862Y-22783796D01*
X65389038Y-22794558D01*
X65442256Y-22841551D01*
X65450048Y-22855922D01*
X65509377Y-22984616D01*
X65512710Y-22989332D01*
X65547429Y-23038458D01*
X65626533Y-23150389D01*
X65771938Y-23292035D01*
X65776742Y-23295245D01*
X65841129Y-23338267D01*
X65940720Y-23404812D01*
X65946023Y-23407090D01*
X65946026Y-23407092D01*
X66116868Y-23480491D01*
X66127228Y-23484942D01*
X66185997Y-23498240D01*
X66319579Y-23528467D01*
X66319584Y-23528468D01*
X66325216Y-23529742D01*
X66330987Y-23529969D01*
X66330989Y-23529969D01*
X66390756Y-23532317D01*
X66528053Y-23537712D01*
X66628499Y-23523148D01*
X66723231Y-23509413D01*
X66723236Y-23509412D01*
X66728945Y-23508584D01*
X66734409Y-23506729D01*
X66734414Y-23506728D01*
X66915693Y-23445192D01*
X66915698Y-23445190D01*
X66921165Y-23443334D01*
X66931490Y-23437552D01*
X67069329Y-23360358D01*
X67098276Y-23344147D01*
X67102723Y-23340449D01*
X67225696Y-23238172D01*
X67254345Y-23214345D01*
X67384147Y-23058276D01*
X67483334Y-22881165D01*
X67485720Y-22874135D01*
X67486170Y-22873496D01*
X67487541Y-22870416D01*
X67488146Y-22870685D01*
X67526553Y-22816059D01*
X67592305Y-22789278D01*
X67662098Y-22802295D01*
X67713773Y-22850980D01*
X67721777Y-22867229D01*
X67791770Y-23039603D01*
X67796413Y-23048794D01*
X67907694Y-23230388D01*
X67913777Y-23238699D01*
X68053213Y-23399667D01*
X68060580Y-23406883D01*
X68224434Y-23542916D01*
X68232881Y-23548831D01*
X68416756Y-23656279D01*
X68426042Y-23660729D01*
X68575124Y-23717657D01*
X68631627Y-23760644D01*
X68655920Y-23827355D01*
X68640290Y-23896610D01*
X68589699Y-23946421D01*
X68573785Y-23953579D01*
X68532463Y-23968824D01*
X68358010Y-24072612D01*
X68353670Y-24076418D01*
X68353666Y-24076421D01*
X68241272Y-24174989D01*
X68205392Y-24206455D01*
X68079720Y-24365869D01*
X68077033Y-24370977D01*
X68077029Y-24370983D01*
X68066591Y-24390822D01*
X67985203Y-24545515D01*
X67925007Y-24739378D01*
X67901148Y-24940964D01*
X67914424Y-25143522D01*
X67915845Y-25149118D01*
X67915846Y-25149123D01*
X67937508Y-25234414D01*
X67964392Y-25340269D01*
X67966809Y-25345512D01*
X68004010Y-25426208D01*
X68049377Y-25524616D01*
X68166533Y-25690389D01*
X68311938Y-25832035D01*
X68480720Y-25944812D01*
X68486023Y-25947090D01*
X68486026Y-25947092D01*
X68661921Y-26022662D01*
X68667228Y-26024942D01*
X68735485Y-26040387D01*
X68859579Y-26068467D01*
X68859584Y-26068468D01*
X68865216Y-26069742D01*
X68870987Y-26069969D01*
X68870989Y-26069969D01*
X68930756Y-26072317D01*
X69068053Y-26077712D01*
X69168499Y-26063148D01*
X69263231Y-26049413D01*
X69263236Y-26049412D01*
X69268945Y-26048584D01*
X69274409Y-26046729D01*
X69274414Y-26046728D01*
X69455693Y-25985192D01*
X69455698Y-25985190D01*
X69461165Y-25983334D01*
X69638276Y-25884147D01*
X69643934Y-25879442D01*
X69765696Y-25778172D01*
X69794345Y-25754345D01*
X69924147Y-25598276D01*
X70023334Y-25421165D01*
X70025190Y-25415698D01*
X70025192Y-25415693D01*
X70086728Y-25234414D01*
X70086729Y-25234409D01*
X70088584Y-25228945D01*
X70089412Y-25223236D01*
X70089413Y-25223231D01*
X70117179Y-25031727D01*
X70117712Y-25028053D01*
X70119232Y-24970000D01*
X70116564Y-24940964D01*
X70441148Y-24940964D01*
X70454424Y-25143522D01*
X70455845Y-25149118D01*
X70455846Y-25149123D01*
X70477508Y-25234414D01*
X70504392Y-25340269D01*
X70506809Y-25345512D01*
X70544010Y-25426208D01*
X70589377Y-25524616D01*
X70706533Y-25690389D01*
X70851938Y-25832035D01*
X71020720Y-25944812D01*
X71026023Y-25947090D01*
X71026026Y-25947092D01*
X71201921Y-26022662D01*
X71207228Y-26024942D01*
X71275485Y-26040387D01*
X71399579Y-26068467D01*
X71399584Y-26068468D01*
X71405216Y-26069742D01*
X71410987Y-26069969D01*
X71410989Y-26069969D01*
X71470756Y-26072317D01*
X71608053Y-26077712D01*
X71708499Y-26063148D01*
X71803231Y-26049413D01*
X71803236Y-26049412D01*
X71808945Y-26048584D01*
X71814409Y-26046729D01*
X71814414Y-26046728D01*
X71995693Y-25985192D01*
X71995698Y-25985190D01*
X72001165Y-25983334D01*
X72178276Y-25884147D01*
X72183934Y-25879442D01*
X72305696Y-25778172D01*
X72334345Y-25754345D01*
X72464147Y-25598276D01*
X72563334Y-25421165D01*
X72565190Y-25415698D01*
X72565192Y-25415693D01*
X72626728Y-25234414D01*
X72626729Y-25234409D01*
X72628584Y-25228945D01*
X72629412Y-25223236D01*
X72629413Y-25223231D01*
X72657179Y-25031727D01*
X72657712Y-25028053D01*
X72659232Y-24970000D01*
X72656564Y-24940964D01*
X72981148Y-24940964D01*
X72994424Y-25143522D01*
X72995845Y-25149118D01*
X72995846Y-25149123D01*
X73017508Y-25234414D01*
X73044392Y-25340269D01*
X73046809Y-25345512D01*
X73084010Y-25426208D01*
X73129377Y-25524616D01*
X73246533Y-25690389D01*
X73391938Y-25832035D01*
X73560720Y-25944812D01*
X73566023Y-25947090D01*
X73566026Y-25947092D01*
X73741921Y-26022662D01*
X73747228Y-26024942D01*
X73815485Y-26040387D01*
X73939579Y-26068467D01*
X73939584Y-26068468D01*
X73945216Y-26069742D01*
X73950987Y-26069969D01*
X73950989Y-26069969D01*
X74010756Y-26072317D01*
X74148053Y-26077712D01*
X74248499Y-26063148D01*
X74343231Y-26049413D01*
X74343236Y-26049412D01*
X74348945Y-26048584D01*
X74354409Y-26046729D01*
X74354414Y-26046728D01*
X74535693Y-25985192D01*
X74535698Y-25985190D01*
X74541165Y-25983334D01*
X74718276Y-25884147D01*
X74723934Y-25879442D01*
X74845696Y-25778172D01*
X74874345Y-25754345D01*
X75004147Y-25598276D01*
X75103334Y-25421165D01*
X75105720Y-25414135D01*
X75106170Y-25413496D01*
X75107541Y-25410416D01*
X75108146Y-25410685D01*
X75146553Y-25356059D01*
X75212305Y-25329278D01*
X75282098Y-25342295D01*
X75333773Y-25390980D01*
X75341777Y-25407229D01*
X75411770Y-25579603D01*
X75416413Y-25588794D01*
X75527694Y-25770388D01*
X75533777Y-25778699D01*
X75673213Y-25939667D01*
X75680580Y-25946883D01*
X75844434Y-26082916D01*
X75852881Y-26088831D01*
X76036756Y-26196279D01*
X76046042Y-26200729D01*
X76245001Y-26276703D01*
X76254899Y-26279579D01*
X76358250Y-26300606D01*
X76372299Y-26299410D01*
X76376000Y-26289065D01*
X76376000Y-25237548D01*
X76884000Y-25237548D01*
X76884000Y-26288517D01*
X76888064Y-26302359D01*
X76901478Y-26304393D01*
X76908184Y-26303534D01*
X76918262Y-26301392D01*
X77122255Y-26240191D01*
X77131842Y-26236433D01*
X77323095Y-26142739D01*
X77331945Y-26137464D01*
X77505328Y-26013792D01*
X77513200Y-26007139D01*
X77664052Y-25856812D01*
X77670730Y-25848965D01*
X77795003Y-25676020D01*
X77800313Y-25667183D01*
X77894670Y-25476267D01*
X77898469Y-25466672D01*
X77960377Y-25262910D01*
X77962555Y-25252837D01*
X77963986Y-25241962D01*
X77961775Y-25227778D01*
X77948617Y-25224000D01*
X76902115Y-25224000D01*
X76886876Y-25228475D01*
X76885671Y-25229865D01*
X76884000Y-25237548D01*
X76376000Y-25237548D01*
X76376000Y-24842000D01*
X76396002Y-24773879D01*
X76449658Y-24727386D01*
X76502000Y-24716000D01*
X77948344Y-24716000D01*
X77961875Y-24712027D01*
X77963180Y-24702947D01*
X77921214Y-24535875D01*
X77917894Y-24526124D01*
X77832972Y-24330814D01*
X77828105Y-24321739D01*
X77712426Y-24142926D01*
X77706136Y-24134757D01*
X77562806Y-23977240D01*
X77555273Y-23970215D01*
X77388139Y-23838222D01*
X77379552Y-23832517D01*
X77193117Y-23729599D01*
X77183705Y-23725369D01*
X77069391Y-23684888D01*
X77011855Y-23643294D01*
X76985939Y-23577196D01*
X76999873Y-23507580D01*
X77007205Y-23500000D01*
X79990848Y-23500000D01*
X80009428Y-23736083D01*
X80010582Y-23740890D01*
X80010583Y-23740896D01*
X80036119Y-23847261D01*
X80064711Y-23966354D01*
X80066604Y-23970925D01*
X80066605Y-23970927D01*
X80146263Y-24163236D01*
X80155336Y-24185141D01*
X80279070Y-24387057D01*
X80432868Y-24567132D01*
X80612943Y-24720930D01*
X80814859Y-24844664D01*
X80819429Y-24846557D01*
X80819433Y-24846559D01*
X81029073Y-24933395D01*
X81029075Y-24933396D01*
X81033646Y-24935289D01*
X81113499Y-24954460D01*
X81259104Y-24989417D01*
X81259110Y-24989418D01*
X81263917Y-24990572D01*
X81500000Y-25009152D01*
X81736083Y-24990572D01*
X81740890Y-24989418D01*
X81740896Y-24989417D01*
X81886501Y-24954460D01*
X81966354Y-24935289D01*
X81970925Y-24933396D01*
X81970927Y-24933395D01*
X82180567Y-24846559D01*
X82180571Y-24846557D01*
X82185141Y-24844664D01*
X82387057Y-24720930D01*
X82567132Y-24567132D01*
X82720930Y-24387057D01*
X82844664Y-24185141D01*
X82853738Y-24163236D01*
X82933395Y-23970927D01*
X82933396Y-23970925D01*
X82935289Y-23966354D01*
X82963881Y-23847261D01*
X82989417Y-23740896D01*
X82989418Y-23740890D01*
X82990572Y-23736083D01*
X83009152Y-23500000D01*
X82990572Y-23263917D01*
X82987875Y-23252680D01*
X82954460Y-23113499D01*
X82935289Y-23033646D01*
X82933395Y-23029073D01*
X82846559Y-22819433D01*
X82846557Y-22819429D01*
X82844664Y-22814859D01*
X82720930Y-22612943D01*
X82567132Y-22432868D01*
X82387057Y-22279070D01*
X82185141Y-22155336D01*
X82180571Y-22153443D01*
X82180567Y-22153441D01*
X81970927Y-22066605D01*
X81970925Y-22066604D01*
X81966354Y-22064711D01*
X81867336Y-22040939D01*
X81740896Y-22010583D01*
X81740890Y-22010582D01*
X81736083Y-22009428D01*
X81500000Y-21990848D01*
X81263917Y-22009428D01*
X81259110Y-22010582D01*
X81259104Y-22010583D01*
X81132664Y-22040939D01*
X81033646Y-22064711D01*
X81029075Y-22066604D01*
X81029073Y-22066605D01*
X80819433Y-22153441D01*
X80819429Y-22153443D01*
X80814859Y-22155336D01*
X80612943Y-22279070D01*
X80432868Y-22432868D01*
X80279070Y-22612943D01*
X80155336Y-22814859D01*
X80153443Y-22819429D01*
X80153441Y-22819433D01*
X80066605Y-23029073D01*
X80064711Y-23033646D01*
X80045540Y-23113499D01*
X80012126Y-23252680D01*
X80009428Y-23263917D01*
X79990848Y-23500000D01*
X77007205Y-23500000D01*
X77049232Y-23456549D01*
X77070943Y-23446804D01*
X77081165Y-23443334D01*
X77091490Y-23437552D01*
X77229329Y-23360358D01*
X77258276Y-23344147D01*
X77262723Y-23340449D01*
X77385696Y-23238172D01*
X77414345Y-23214345D01*
X77544147Y-23058276D01*
X77643334Y-22881165D01*
X77645190Y-22875698D01*
X77645192Y-22875693D01*
X77706728Y-22694414D01*
X77706729Y-22694409D01*
X77708584Y-22688945D01*
X77709412Y-22683236D01*
X77709413Y-22683231D01*
X77737179Y-22491727D01*
X77737712Y-22488053D01*
X77739232Y-22430000D01*
X77720658Y-22227859D01*
X77719090Y-22222299D01*
X77667125Y-22038046D01*
X77667124Y-22038044D01*
X77665557Y-22032487D01*
X77654978Y-22011033D01*
X77578331Y-21855609D01*
X77575776Y-21850428D01*
X77454320Y-21687779D01*
X77305258Y-21549987D01*
X77300375Y-21546906D01*
X77300371Y-21546903D01*
X77138464Y-21444748D01*
X77133581Y-21441667D01*
X76945039Y-21366446D01*
X76939379Y-21365320D01*
X76939375Y-21365319D01*
X76751613Y-21327971D01*
X76751610Y-21327971D01*
X76745946Y-21326844D01*
X76740171Y-21326768D01*
X76740167Y-21326768D01*
X76638793Y-21325441D01*
X76542971Y-21324187D01*
X76537274Y-21325166D01*
X76537273Y-21325166D01*
X76371682Y-21353620D01*
X76342910Y-21358564D01*
X76152463Y-21428824D01*
X75978010Y-21532612D01*
X75973670Y-21536418D01*
X75973666Y-21536421D01*
X75873513Y-21624254D01*
X75825392Y-21666455D01*
X75699720Y-21825869D01*
X75697031Y-21830980D01*
X75697029Y-21830983D01*
X75684073Y-21855609D01*
X75605203Y-22005515D01*
X75545007Y-22199378D01*
X75521148Y-22400964D01*
X75534424Y-22603522D01*
X75535845Y-22609118D01*
X75535846Y-22609123D01*
X75554863Y-22684000D01*
X75584392Y-22800269D01*
X75586809Y-22805512D01*
X75655874Y-22955326D01*
X75669377Y-22984616D01*
X75672710Y-22989332D01*
X75707429Y-23038458D01*
X75786533Y-23150389D01*
X75931938Y-23292035D01*
X75936742Y-23295245D01*
X76001129Y-23338267D01*
X76100720Y-23404812D01*
X76106023Y-23407090D01*
X76106026Y-23407092D01*
X76202954Y-23448735D01*
X76257647Y-23494003D01*
X76279184Y-23561654D01*
X76260727Y-23630210D01*
X76208136Y-23677904D01*
X76192361Y-23684268D01*
X76106868Y-23712212D01*
X76097359Y-23716209D01*
X75908463Y-23814542D01*
X75899738Y-23820036D01*
X75729433Y-23947905D01*
X75721726Y-23954748D01*
X75574590Y-24108717D01*
X75568104Y-24116727D01*
X75448098Y-24292649D01*
X75443000Y-24301623D01*
X75353338Y-24494783D01*
X75349777Y-24504464D01*
X75345291Y-24520640D01*
X75307813Y-24580939D01*
X75243684Y-24611403D01*
X75173266Y-24602360D01*
X75118915Y-24556682D01*
X75110867Y-24542698D01*
X75038331Y-24395609D01*
X75035776Y-24390428D01*
X74914320Y-24227779D01*
X74765258Y-24089987D01*
X74760375Y-24086906D01*
X74760371Y-24086903D01*
X74598464Y-23984748D01*
X74593581Y-23981667D01*
X74405039Y-23906446D01*
X74399379Y-23905320D01*
X74399375Y-23905319D01*
X74211613Y-23867971D01*
X74211610Y-23867971D01*
X74205946Y-23866844D01*
X74200171Y-23866768D01*
X74200167Y-23866768D01*
X74098793Y-23865441D01*
X74002971Y-23864187D01*
X73997274Y-23865166D01*
X73997273Y-23865166D01*
X73808607Y-23897585D01*
X73802910Y-23898564D01*
X73612463Y-23968824D01*
X73438010Y-24072612D01*
X73433670Y-24076418D01*
X73433666Y-24076421D01*
X73321272Y-24174989D01*
X73285392Y-24206455D01*
X73159720Y-24365869D01*
X73157033Y-24370977D01*
X73157029Y-24370983D01*
X73146591Y-24390822D01*
X73065203Y-24545515D01*
X73005007Y-24739378D01*
X72981148Y-24940964D01*
X72656564Y-24940964D01*
X72640658Y-24767859D01*
X72639090Y-24762299D01*
X72587125Y-24578046D01*
X72587124Y-24578044D01*
X72585557Y-24572487D01*
X72582917Y-24567132D01*
X72498331Y-24395609D01*
X72495776Y-24390428D01*
X72374320Y-24227779D01*
X72225258Y-24089987D01*
X72220375Y-24086906D01*
X72220371Y-24086903D01*
X72058464Y-23984748D01*
X72053581Y-23981667D01*
X71865039Y-23906446D01*
X71859379Y-23905320D01*
X71859375Y-23905319D01*
X71671613Y-23867971D01*
X71671610Y-23867971D01*
X71665946Y-23866844D01*
X71660171Y-23866768D01*
X71660167Y-23866768D01*
X71558793Y-23865441D01*
X71462971Y-23864187D01*
X71457274Y-23865166D01*
X71457273Y-23865166D01*
X71268607Y-23897585D01*
X71262910Y-23898564D01*
X71072463Y-23968824D01*
X70898010Y-24072612D01*
X70893670Y-24076418D01*
X70893666Y-24076421D01*
X70781272Y-24174989D01*
X70745392Y-24206455D01*
X70619720Y-24365869D01*
X70617033Y-24370977D01*
X70617029Y-24370983D01*
X70606591Y-24390822D01*
X70525203Y-24545515D01*
X70465007Y-24739378D01*
X70441148Y-24940964D01*
X70116564Y-24940964D01*
X70100658Y-24767859D01*
X70099090Y-24762299D01*
X70047125Y-24578046D01*
X70047124Y-24578044D01*
X70045557Y-24572487D01*
X70042917Y-24567132D01*
X69958331Y-24395609D01*
X69955776Y-24390428D01*
X69834320Y-24227779D01*
X69685258Y-24089987D01*
X69680375Y-24086906D01*
X69680371Y-24086903D01*
X69518464Y-23984748D01*
X69513581Y-23981667D01*
X69441614Y-23952955D01*
X69385755Y-23909134D01*
X69362455Y-23842069D01*
X69379111Y-23773054D01*
X69430436Y-23724000D01*
X69452098Y-23715239D01*
X69502252Y-23700192D01*
X69511842Y-23696433D01*
X69703095Y-23602739D01*
X69711945Y-23597464D01*
X69885328Y-23473792D01*
X69893200Y-23467139D01*
X70044052Y-23316812D01*
X70050730Y-23308965D01*
X70175003Y-23136020D01*
X70180313Y-23127183D01*
X70274670Y-22936267D01*
X70278469Y-22926672D01*
X70295066Y-22872047D01*
X70334007Y-22812683D01*
X70398862Y-22783796D01*
X70469038Y-22794558D01*
X70522256Y-22841551D01*
X70530048Y-22855922D01*
X70589377Y-22984616D01*
X70592710Y-22989332D01*
X70627429Y-23038458D01*
X70706533Y-23150389D01*
X70851938Y-23292035D01*
X70856742Y-23295245D01*
X70921129Y-23338267D01*
X71020720Y-23404812D01*
X71026023Y-23407090D01*
X71026026Y-23407092D01*
X71196868Y-23480491D01*
X71207228Y-23484942D01*
X71265997Y-23498240D01*
X71399579Y-23528467D01*
X71399584Y-23528468D01*
X71405216Y-23529742D01*
X71410987Y-23529969D01*
X71410989Y-23529969D01*
X71470756Y-23532317D01*
X71608053Y-23537712D01*
X71708499Y-23523148D01*
X71803231Y-23509413D01*
X71803236Y-23509412D01*
X71808945Y-23508584D01*
X71814409Y-23506729D01*
X71814414Y-23506728D01*
X71995693Y-23445192D01*
X71995698Y-23445190D01*
X72001165Y-23443334D01*
X72011490Y-23437552D01*
X72149329Y-23360358D01*
X72178276Y-23344147D01*
X72182723Y-23340449D01*
X72305696Y-23238172D01*
X72334345Y-23214345D01*
X72464147Y-23058276D01*
X72563334Y-22881165D01*
X72565190Y-22875698D01*
X72565192Y-22875693D01*
X72626728Y-22694414D01*
X72626729Y-22694409D01*
X72628584Y-22688945D01*
X72629412Y-22683236D01*
X72629413Y-22683231D01*
X72657179Y-22491727D01*
X72657712Y-22488053D01*
X72659232Y-22430000D01*
X72656564Y-22400964D01*
X72981148Y-22400964D01*
X72994424Y-22603522D01*
X72995845Y-22609118D01*
X72995846Y-22609123D01*
X73014863Y-22684000D01*
X73044392Y-22800269D01*
X73046809Y-22805512D01*
X73115874Y-22955326D01*
X73129377Y-22984616D01*
X73132710Y-22989332D01*
X73167429Y-23038458D01*
X73246533Y-23150389D01*
X73391938Y-23292035D01*
X73396742Y-23295245D01*
X73461129Y-23338267D01*
X73560720Y-23404812D01*
X73566023Y-23407090D01*
X73566026Y-23407092D01*
X73736868Y-23480491D01*
X73747228Y-23484942D01*
X73805997Y-23498240D01*
X73939579Y-23528467D01*
X73939584Y-23528468D01*
X73945216Y-23529742D01*
X73950987Y-23529969D01*
X73950989Y-23529969D01*
X74010756Y-23532317D01*
X74148053Y-23537712D01*
X74248499Y-23523148D01*
X74343231Y-23509413D01*
X74343236Y-23509412D01*
X74348945Y-23508584D01*
X74354409Y-23506729D01*
X74354414Y-23506728D01*
X74535693Y-23445192D01*
X74535698Y-23445190D01*
X74541165Y-23443334D01*
X74551490Y-23437552D01*
X74689329Y-23360358D01*
X74718276Y-23344147D01*
X74722723Y-23340449D01*
X74845696Y-23238172D01*
X74874345Y-23214345D01*
X75004147Y-23058276D01*
X75103334Y-22881165D01*
X75105190Y-22875698D01*
X75105192Y-22875693D01*
X75166728Y-22694414D01*
X75166729Y-22694409D01*
X75168584Y-22688945D01*
X75169412Y-22683236D01*
X75169413Y-22683231D01*
X75197179Y-22491727D01*
X75197712Y-22488053D01*
X75199232Y-22430000D01*
X75180658Y-22227859D01*
X75179090Y-22222299D01*
X75127125Y-22038046D01*
X75127124Y-22038044D01*
X75125557Y-22032487D01*
X75114978Y-22011033D01*
X75038331Y-21855609D01*
X75035776Y-21850428D01*
X74914320Y-21687779D01*
X74765258Y-21549987D01*
X74760375Y-21546906D01*
X74760371Y-21546903D01*
X74598464Y-21444748D01*
X74593581Y-21441667D01*
X74405039Y-21366446D01*
X74399379Y-21365320D01*
X74399375Y-21365319D01*
X74211613Y-21327971D01*
X74211610Y-21327971D01*
X74205946Y-21326844D01*
X74200171Y-21326768D01*
X74200167Y-21326768D01*
X74098793Y-21325441D01*
X74002971Y-21324187D01*
X73997274Y-21325166D01*
X73997273Y-21325166D01*
X73831682Y-21353620D01*
X73802910Y-21358564D01*
X73612463Y-21428824D01*
X73438010Y-21532612D01*
X73433670Y-21536418D01*
X73433666Y-21536421D01*
X73333513Y-21624254D01*
X73285392Y-21666455D01*
X73159720Y-21825869D01*
X73157031Y-21830980D01*
X73157029Y-21830983D01*
X73144073Y-21855609D01*
X73065203Y-22005515D01*
X73005007Y-22199378D01*
X72981148Y-22400964D01*
X72656564Y-22400964D01*
X72640658Y-22227859D01*
X72639090Y-22222299D01*
X72587125Y-22038046D01*
X72587124Y-22038044D01*
X72585557Y-22032487D01*
X72574978Y-22011033D01*
X72498331Y-21855609D01*
X72495776Y-21850428D01*
X72374320Y-21687779D01*
X72225258Y-21549987D01*
X72220375Y-21546906D01*
X72220371Y-21546903D01*
X72058464Y-21444748D01*
X72053581Y-21441667D01*
X71865039Y-21366446D01*
X71859379Y-21365320D01*
X71859375Y-21365319D01*
X71671613Y-21327971D01*
X71671610Y-21327971D01*
X71665946Y-21326844D01*
X71660171Y-21326768D01*
X71660167Y-21326768D01*
X71558793Y-21325441D01*
X71462971Y-21324187D01*
X71457274Y-21325166D01*
X71457273Y-21325166D01*
X71291682Y-21353620D01*
X71262910Y-21358564D01*
X71072463Y-21428824D01*
X70898010Y-21532612D01*
X70893670Y-21536418D01*
X70893666Y-21536421D01*
X70793513Y-21624254D01*
X70745392Y-21666455D01*
X70619720Y-21825869D01*
X70617031Y-21830980D01*
X70617029Y-21830983D01*
X70527589Y-22000980D01*
X70478170Y-22051952D01*
X70409037Y-22068115D01*
X70342141Y-22044336D01*
X70302003Y-21989973D01*
X70299955Y-21990863D01*
X70212972Y-21790814D01*
X70208105Y-21781739D01*
X70092426Y-21602926D01*
X70086136Y-21594757D01*
X69942806Y-21437240D01*
X69935273Y-21430215D01*
X69768139Y-21298222D01*
X69759552Y-21292517D01*
X69573117Y-21189599D01*
X69563705Y-21185369D01*
X69362959Y-21114280D01*
X69352988Y-21111646D01*
X69281837Y-21098972D01*
X69268540Y-21100432D01*
X69264000Y-21114989D01*
X69264000Y-22558000D01*
X69243998Y-22626121D01*
X69190342Y-22672614D01*
X69138000Y-22684000D01*
X68882000Y-22684000D01*
X68813879Y-22663998D01*
X68767386Y-22610342D01*
X68756000Y-22558000D01*
X68756000Y-21113102D01*
X68752082Y-21099758D01*
X68737806Y-21097771D01*
X68699324Y-21103660D01*
X68689288Y-21106051D01*
X68486868Y-21172212D01*
X68477359Y-21176209D01*
X68288463Y-21274542D01*
X68279738Y-21280036D01*
X68109433Y-21407905D01*
X68101726Y-21414748D01*
X67954590Y-21568717D01*
X67948104Y-21576727D01*
X67828098Y-21752649D01*
X67823000Y-21761623D01*
X67733338Y-21954783D01*
X67729777Y-21964464D01*
X67725291Y-21980640D01*
X67687813Y-22040939D01*
X67623684Y-22071403D01*
X67553266Y-22062360D01*
X67498915Y-22016682D01*
X67490867Y-22002698D01*
X67418331Y-21855609D01*
X67415776Y-21850428D01*
X67294320Y-21687779D01*
X67145258Y-21549987D01*
X67140375Y-21546906D01*
X67140371Y-21546903D01*
X66978464Y-21444748D01*
X66973581Y-21441667D01*
X66785039Y-21366446D01*
X66779379Y-21365320D01*
X66779375Y-21365319D01*
X66591613Y-21327971D01*
X66591610Y-21327971D01*
X66585946Y-21326844D01*
X66580171Y-21326768D01*
X66580167Y-21326768D01*
X66478793Y-21325441D01*
X66382971Y-21324187D01*
X66377274Y-21325166D01*
X66377273Y-21325166D01*
X66211682Y-21353620D01*
X66182910Y-21358564D01*
X65992463Y-21428824D01*
X65818010Y-21532612D01*
X65813670Y-21536418D01*
X65813666Y-21536421D01*
X65713513Y-21624254D01*
X65665392Y-21666455D01*
X65539720Y-21825869D01*
X65537031Y-21830980D01*
X65537029Y-21830983D01*
X65447589Y-22000980D01*
X65398170Y-22051952D01*
X65329037Y-22068115D01*
X65262141Y-22044336D01*
X65222003Y-21989973D01*
X65219955Y-21990863D01*
X65132972Y-21790814D01*
X65128105Y-21781739D01*
X65012426Y-21602926D01*
X65006136Y-21594757D01*
X64862806Y-21437240D01*
X64855273Y-21430215D01*
X64688139Y-21298222D01*
X64679552Y-21292517D01*
X64493117Y-21189599D01*
X64483705Y-21185369D01*
X64282959Y-21114280D01*
X64272988Y-21111646D01*
X64201837Y-21098972D01*
X64188540Y-21100432D01*
X64184000Y-21114989D01*
X64184000Y-22558000D01*
X64163998Y-22626121D01*
X64110342Y-22672614D01*
X64058000Y-22684000D01*
X63802000Y-22684000D01*
X63733879Y-22663998D01*
X63687386Y-22610342D01*
X63676000Y-22558000D01*
X63676000Y-21113102D01*
X63672082Y-21099758D01*
X63657806Y-21097771D01*
X63619324Y-21103660D01*
X63609288Y-21106051D01*
X63406868Y-21172212D01*
X63397359Y-21176209D01*
X63208463Y-21274542D01*
X63199738Y-21280036D01*
X63029433Y-21407905D01*
X63021726Y-21414748D01*
X62874590Y-21568717D01*
X62868104Y-21576727D01*
X62748098Y-21752649D01*
X62743000Y-21761623D01*
X62653338Y-21954783D01*
X62649777Y-21964464D01*
X62645291Y-21980640D01*
X62607813Y-22040939D01*
X62543684Y-22071403D01*
X62473266Y-22062360D01*
X62418915Y-22016682D01*
X62410867Y-22002698D01*
X62338331Y-21855609D01*
X62335776Y-21850428D01*
X62214320Y-21687779D01*
X62065258Y-21549987D01*
X62060375Y-21546906D01*
X62060371Y-21546903D01*
X61898464Y-21444748D01*
X61893581Y-21441667D01*
X61705039Y-21366446D01*
X61699379Y-21365320D01*
X61699375Y-21365319D01*
X61511613Y-21327971D01*
X61511610Y-21327971D01*
X61505946Y-21326844D01*
X61500171Y-21326768D01*
X61500167Y-21326768D01*
X61398793Y-21325441D01*
X61302971Y-21324187D01*
X61297274Y-21325166D01*
X61297273Y-21325166D01*
X61131682Y-21353620D01*
X61102910Y-21358564D01*
X60912463Y-21428824D01*
X60738010Y-21532612D01*
X60733670Y-21536418D01*
X60733666Y-21536421D01*
X60633513Y-21624254D01*
X60585392Y-21666455D01*
X60459720Y-21825869D01*
X60457031Y-21830980D01*
X60457029Y-21830983D01*
X60444073Y-21855609D01*
X60365203Y-22005515D01*
X60305007Y-22199378D01*
X60281148Y-22400964D01*
X59956564Y-22400964D01*
X59940658Y-22227859D01*
X59939090Y-22222299D01*
X59887125Y-22038046D01*
X59887124Y-22038044D01*
X59885557Y-22032487D01*
X59874978Y-22011033D01*
X59798331Y-21855609D01*
X59795776Y-21850428D01*
X59674320Y-21687779D01*
X59525258Y-21549987D01*
X59520375Y-21546906D01*
X59520371Y-21546903D01*
X59358464Y-21444748D01*
X59353581Y-21441667D01*
X59165039Y-21366446D01*
X59159379Y-21365320D01*
X59159375Y-21365319D01*
X58971613Y-21327971D01*
X58971610Y-21327971D01*
X58965946Y-21326844D01*
X58960171Y-21326768D01*
X58960167Y-21326768D01*
X58858793Y-21325441D01*
X58762971Y-21324187D01*
X58757274Y-21325166D01*
X58757273Y-21325166D01*
X58591682Y-21353620D01*
X58562910Y-21358564D01*
X58372463Y-21428824D01*
X58198010Y-21532612D01*
X58193670Y-21536418D01*
X58193666Y-21536421D01*
X58093513Y-21624254D01*
X58045392Y-21666455D01*
X57919720Y-21825869D01*
X57917031Y-21830980D01*
X57917029Y-21830983D01*
X57904073Y-21855609D01*
X57825203Y-22005515D01*
X57765007Y-22199378D01*
X57741148Y-22400964D01*
X57754424Y-22603522D01*
X57755845Y-22609118D01*
X57755846Y-22609123D01*
X57774863Y-22684000D01*
X57804392Y-22800269D01*
X57806809Y-22805512D01*
X57875874Y-22955326D01*
X57889377Y-22984616D01*
X57892710Y-22989332D01*
X57927429Y-23038458D01*
X58006533Y-23150389D01*
X58151938Y-23292035D01*
X58156742Y-23295245D01*
X58221129Y-23338267D01*
X58320720Y-23404812D01*
X58326023Y-23407090D01*
X58326026Y-23407092D01*
X58422954Y-23448735D01*
X58477647Y-23494003D01*
X58499184Y-23561654D01*
X58480727Y-23630210D01*
X58428136Y-23677904D01*
X58412361Y-23684268D01*
X58326868Y-23712212D01*
X58317359Y-23716209D01*
X58128463Y-23814542D01*
X58119738Y-23820036D01*
X57949433Y-23947905D01*
X57941726Y-23954748D01*
X57794590Y-24108717D01*
X57788104Y-24116727D01*
X57668098Y-24292649D01*
X57663000Y-24301623D01*
X57573338Y-24494783D01*
X57569777Y-24504464D01*
X57565291Y-24520640D01*
X57527813Y-24580939D01*
X57463684Y-24611403D01*
X57393266Y-24602360D01*
X57338915Y-24556682D01*
X57330867Y-24542698D01*
X57258331Y-24395609D01*
X57255776Y-24390428D01*
X57134320Y-24227779D01*
X56985258Y-24089987D01*
X56980375Y-24086906D01*
X56980371Y-24086903D01*
X56818464Y-23984748D01*
X56813581Y-23981667D01*
X56625039Y-23906446D01*
X56619379Y-23905320D01*
X56619375Y-23905319D01*
X56431613Y-23867971D01*
X56431610Y-23867971D01*
X56425946Y-23866844D01*
X56420171Y-23866768D01*
X56420167Y-23866768D01*
X56318793Y-23865441D01*
X56222971Y-23864187D01*
X56217274Y-23865166D01*
X56217273Y-23865166D01*
X56028607Y-23897585D01*
X56022910Y-23898564D01*
X55832463Y-23968824D01*
X55658010Y-24072612D01*
X55653670Y-24076418D01*
X55653666Y-24076421D01*
X55541272Y-24174989D01*
X55505392Y-24206455D01*
X55379720Y-24365869D01*
X55377033Y-24370977D01*
X55377029Y-24370983D01*
X55366591Y-24390822D01*
X55285203Y-24545515D01*
X55225007Y-24739378D01*
X55201148Y-24940964D01*
X54876564Y-24940964D01*
X54860658Y-24767859D01*
X54859090Y-24762299D01*
X54807125Y-24578046D01*
X54807124Y-24578044D01*
X54805557Y-24572487D01*
X54802917Y-24567132D01*
X54718331Y-24395609D01*
X54715776Y-24390428D01*
X54594320Y-24227779D01*
X54445258Y-24089987D01*
X54440375Y-24086906D01*
X54440371Y-24086903D01*
X54278464Y-23984748D01*
X54273581Y-23981667D01*
X54085039Y-23906446D01*
X54079379Y-23905320D01*
X54079375Y-23905319D01*
X53891613Y-23867971D01*
X53891610Y-23867971D01*
X53885946Y-23866844D01*
X53880171Y-23866768D01*
X53880167Y-23866768D01*
X53778793Y-23865441D01*
X53682971Y-23864187D01*
X53677274Y-23865166D01*
X53677273Y-23865166D01*
X53488607Y-23897585D01*
X53482910Y-23898564D01*
X53292463Y-23968824D01*
X53118010Y-24072612D01*
X53113670Y-24076418D01*
X53113666Y-24076421D01*
X53001272Y-24174989D01*
X52965392Y-24206455D01*
X52839720Y-24365869D01*
X52837033Y-24370977D01*
X52837029Y-24370983D01*
X52826591Y-24390822D01*
X52745203Y-24545515D01*
X52685007Y-24739378D01*
X52661148Y-24940964D01*
X52336564Y-24940964D01*
X52320658Y-24767859D01*
X52319090Y-24762299D01*
X52267125Y-24578046D01*
X52267124Y-24578044D01*
X52265557Y-24572487D01*
X52262917Y-24567132D01*
X52178331Y-24395609D01*
X52175776Y-24390428D01*
X52054320Y-24227779D01*
X51905258Y-24089987D01*
X51900375Y-24086906D01*
X51900371Y-24086903D01*
X51738464Y-23984748D01*
X51733581Y-23981667D01*
X51661614Y-23952955D01*
X51605755Y-23909134D01*
X51582455Y-23842069D01*
X51599111Y-23773054D01*
X51650436Y-23724000D01*
X51672098Y-23715239D01*
X51722252Y-23700192D01*
X51731842Y-23696433D01*
X51923095Y-23602739D01*
X51931945Y-23597464D01*
X52105328Y-23473792D01*
X52113200Y-23467139D01*
X52264052Y-23316812D01*
X52270730Y-23308965D01*
X52395003Y-23136020D01*
X52400313Y-23127183D01*
X52494670Y-22936267D01*
X52498469Y-22926672D01*
X52515066Y-22872047D01*
X52554007Y-22812683D01*
X52618862Y-22783796D01*
X52689038Y-22794558D01*
X52742256Y-22841551D01*
X52750048Y-22855922D01*
X52809377Y-22984616D01*
X52812710Y-22989332D01*
X52847429Y-23038458D01*
X52926533Y-23150389D01*
X53071938Y-23292035D01*
X53076742Y-23295245D01*
X53141129Y-23338267D01*
X53240720Y-23404812D01*
X53246023Y-23407090D01*
X53246026Y-23407092D01*
X53416868Y-23480491D01*
X53427228Y-23484942D01*
X53485997Y-23498240D01*
X53619579Y-23528467D01*
X53619584Y-23528468D01*
X53625216Y-23529742D01*
X53630987Y-23529969D01*
X53630989Y-23529969D01*
X53690756Y-23532317D01*
X53828053Y-23537712D01*
X53928499Y-23523148D01*
X54023231Y-23509413D01*
X54023236Y-23509412D01*
X54028945Y-23508584D01*
X54034409Y-23506729D01*
X54034414Y-23506728D01*
X54215693Y-23445192D01*
X54215698Y-23445190D01*
X54221165Y-23443334D01*
X54231490Y-23437552D01*
X54369329Y-23360358D01*
X54398276Y-23344147D01*
X54402723Y-23340449D01*
X54525696Y-23238172D01*
X54554345Y-23214345D01*
X54684147Y-23058276D01*
X54783334Y-22881165D01*
X54785190Y-22875698D01*
X54785192Y-22875693D01*
X54846728Y-22694414D01*
X54846729Y-22694409D01*
X54848584Y-22688945D01*
X54849412Y-22683236D01*
X54849413Y-22683231D01*
X54877179Y-22491727D01*
X54877712Y-22488053D01*
X54879232Y-22430000D01*
X54876564Y-22400964D01*
X55201148Y-22400964D01*
X55214424Y-22603522D01*
X55215845Y-22609118D01*
X55215846Y-22609123D01*
X55234863Y-22684000D01*
X55264392Y-22800269D01*
X55266809Y-22805512D01*
X55335874Y-22955326D01*
X55349377Y-22984616D01*
X55352710Y-22989332D01*
X55387429Y-23038458D01*
X55466533Y-23150389D01*
X55611938Y-23292035D01*
X55616742Y-23295245D01*
X55681129Y-23338267D01*
X55780720Y-23404812D01*
X55786023Y-23407090D01*
X55786026Y-23407092D01*
X55956868Y-23480491D01*
X55967228Y-23484942D01*
X56025997Y-23498240D01*
X56159579Y-23528467D01*
X56159584Y-23528468D01*
X56165216Y-23529742D01*
X56170987Y-23529969D01*
X56170989Y-23529969D01*
X56230756Y-23532317D01*
X56368053Y-23537712D01*
X56468499Y-23523148D01*
X56563231Y-23509413D01*
X56563236Y-23509412D01*
X56568945Y-23508584D01*
X56574409Y-23506729D01*
X56574414Y-23506728D01*
X56755693Y-23445192D01*
X56755698Y-23445190D01*
X56761165Y-23443334D01*
X56771490Y-23437552D01*
X56909329Y-23360358D01*
X56938276Y-23344147D01*
X56942723Y-23340449D01*
X57065696Y-23238172D01*
X57094345Y-23214345D01*
X57224147Y-23058276D01*
X57323334Y-22881165D01*
X57325190Y-22875698D01*
X57325192Y-22875693D01*
X57386728Y-22694414D01*
X57386729Y-22694409D01*
X57388584Y-22688945D01*
X57389412Y-22683236D01*
X57389413Y-22683231D01*
X57417179Y-22491727D01*
X57417712Y-22488053D01*
X57419232Y-22430000D01*
X57400658Y-22227859D01*
X57399090Y-22222299D01*
X57347125Y-22038046D01*
X57347124Y-22038044D01*
X57345557Y-22032487D01*
X57334978Y-22011033D01*
X57258331Y-21855609D01*
X57255776Y-21850428D01*
X57134320Y-21687779D01*
X56985258Y-21549987D01*
X56980375Y-21546906D01*
X56980371Y-21546903D01*
X56818464Y-21444748D01*
X56813581Y-21441667D01*
X56625039Y-21366446D01*
X56619379Y-21365320D01*
X56619375Y-21365319D01*
X56431613Y-21327971D01*
X56431610Y-21327971D01*
X56425946Y-21326844D01*
X56420171Y-21326768D01*
X56420167Y-21326768D01*
X56318793Y-21325441D01*
X56222971Y-21324187D01*
X56217274Y-21325166D01*
X56217273Y-21325166D01*
X56051682Y-21353620D01*
X56022910Y-21358564D01*
X55832463Y-21428824D01*
X55658010Y-21532612D01*
X55653670Y-21536418D01*
X55653666Y-21536421D01*
X55553513Y-21624254D01*
X55505392Y-21666455D01*
X55379720Y-21825869D01*
X55377031Y-21830980D01*
X55377029Y-21830983D01*
X55364073Y-21855609D01*
X55285203Y-22005515D01*
X55225007Y-22199378D01*
X55201148Y-22400964D01*
X54876564Y-22400964D01*
X54860658Y-22227859D01*
X54859090Y-22222299D01*
X54807125Y-22038046D01*
X54807124Y-22038044D01*
X54805557Y-22032487D01*
X54794978Y-22011033D01*
X54718331Y-21855609D01*
X54715776Y-21850428D01*
X54594320Y-21687779D01*
X54445258Y-21549987D01*
X54440375Y-21546906D01*
X54440371Y-21546903D01*
X54278464Y-21444748D01*
X54273581Y-21441667D01*
X54085039Y-21366446D01*
X54079379Y-21365320D01*
X54079375Y-21365319D01*
X53891613Y-21327971D01*
X53891610Y-21327971D01*
X53885946Y-21326844D01*
X53880171Y-21326768D01*
X53880167Y-21326768D01*
X53778793Y-21325441D01*
X53682971Y-21324187D01*
X53677274Y-21325166D01*
X53677273Y-21325166D01*
X53511682Y-21353620D01*
X53482910Y-21358564D01*
X53292463Y-21428824D01*
X53118010Y-21532612D01*
X53113670Y-21536418D01*
X53113666Y-21536421D01*
X53013513Y-21624254D01*
X52965392Y-21666455D01*
X52839720Y-21825869D01*
X52837031Y-21830980D01*
X52837029Y-21830983D01*
X52747589Y-22000980D01*
X52698170Y-22051952D01*
X52629037Y-22068115D01*
X52562141Y-22044336D01*
X52522003Y-21989973D01*
X52519955Y-21990863D01*
X52432972Y-21790814D01*
X52428105Y-21781739D01*
X52312426Y-21602926D01*
X52306136Y-21594757D01*
X52162806Y-21437240D01*
X52155273Y-21430215D01*
X51988139Y-21298222D01*
X51979552Y-21292517D01*
X51793117Y-21189599D01*
X51783705Y-21185369D01*
X51582959Y-21114280D01*
X51572988Y-21111646D01*
X51501837Y-21098972D01*
X51488540Y-21100432D01*
X51484000Y-21114989D01*
X51484000Y-22558000D01*
X51463998Y-22626121D01*
X51410342Y-22672614D01*
X51358000Y-22684000D01*
X51102000Y-22684000D01*
X51033879Y-22663998D01*
X50987386Y-22610342D01*
X50976000Y-22558000D01*
X50976000Y-21113102D01*
X50972082Y-21099758D01*
X50957806Y-21097771D01*
X50919324Y-21103660D01*
X50909288Y-21106051D01*
X50706868Y-21172212D01*
X50697359Y-21176209D01*
X50508463Y-21274542D01*
X50499738Y-21280036D01*
X50329433Y-21407905D01*
X50321726Y-21414748D01*
X50174590Y-21568717D01*
X50168104Y-21576727D01*
X50048098Y-21752649D01*
X50043000Y-21761623D01*
X49953338Y-21954783D01*
X49949777Y-21964464D01*
X49945291Y-21980640D01*
X49907813Y-22040939D01*
X49843684Y-22071403D01*
X49773266Y-22062360D01*
X49718915Y-22016682D01*
X49710867Y-22002698D01*
X49638331Y-21855609D01*
X49635776Y-21850428D01*
X49514320Y-21687779D01*
X49365258Y-21549987D01*
X49360375Y-21546906D01*
X49360371Y-21546903D01*
X49198464Y-21444748D01*
X49193581Y-21441667D01*
X49005039Y-21366446D01*
X48999379Y-21365320D01*
X48999375Y-21365319D01*
X48811613Y-21327971D01*
X48811610Y-21327971D01*
X48805946Y-21326844D01*
X48800171Y-21326768D01*
X48800167Y-21326768D01*
X48698793Y-21325441D01*
X48602971Y-21324187D01*
X48597274Y-21325166D01*
X48597273Y-21325166D01*
X48431682Y-21353620D01*
X48402910Y-21358564D01*
X48212463Y-21428824D01*
X48038010Y-21532612D01*
X48033670Y-21536418D01*
X48033666Y-21536421D01*
X47933513Y-21624254D01*
X47869109Y-21654131D01*
X47798776Y-21644445D01*
X47761339Y-21618617D01*
X47440945Y-21298222D01*
X47120240Y-20977517D01*
X47103484Y-20956770D01*
X47098270Y-20948695D01*
X47101707Y-20946476D01*
X47079569Y-20901004D01*
X47087936Y-20830502D01*
X47133091Y-20775715D01*
X47203806Y-20754000D01*
X81462575Y-20754000D01*
X81487153Y-20756421D01*
X81500000Y-20758976D01*
X81512170Y-20756556D01*
X81524581Y-20756556D01*
X81524581Y-20756757D01*
X81535469Y-20755992D01*
X81800393Y-20770870D01*
X81814425Y-20772450D01*
X81959248Y-20797057D01*
X82104066Y-20821663D01*
X82117841Y-20824807D01*
X82181261Y-20843078D01*
X82400156Y-20906141D01*
X82413477Y-20910802D01*
X82684912Y-21023234D01*
X82697635Y-21029361D01*
X82836395Y-21106051D01*
X82954768Y-21171474D01*
X82966731Y-21178991D01*
X83175994Y-21327470D01*
X83206329Y-21348994D01*
X83217376Y-21357803D01*
X83311220Y-21441667D01*
X83436439Y-21553570D01*
X83446429Y-21563560D01*
X83615410Y-21752649D01*
X83642196Y-21782623D01*
X83651006Y-21793671D01*
X83821009Y-22033269D01*
X83828526Y-22045232D01*
X83970637Y-22302361D01*
X83976766Y-22315088D01*
X84089198Y-22586523D01*
X84093859Y-22599844D01*
X84146855Y-22783796D01*
X84175193Y-22882159D01*
X84178337Y-22895934D01*
X84188428Y-22955326D01*
X84226952Y-23182054D01*
X84227549Y-23185570D01*
X84229130Y-23199607D01*
X84243721Y-23459411D01*
X84244008Y-23464528D01*
X84243243Y-23475419D01*
X84243444Y-23475419D01*
X84243444Y-23487830D01*
X84241024Y-23500000D01*
X84243579Y-23512844D01*
X84246000Y-23537425D01*
X84246000Y-38462575D01*
X84243579Y-38487153D01*
X84241024Y-38500000D01*
X84243444Y-38512170D01*
X84243444Y-38524581D01*
X84243243Y-38524581D01*
X84244008Y-38535472D01*
X84229131Y-38800389D01*
X84227550Y-38814425D01*
X84217158Y-38875585D01*
X84178337Y-39104066D01*
X84175193Y-39117841D01*
X84093859Y-39400156D01*
X84089198Y-39413477D01*
X84026452Y-39564960D01*
X83976768Y-39684908D01*
X83970637Y-39697639D01*
X83828526Y-39954768D01*
X83821009Y-39966731D01*
X83651006Y-40206329D01*
X83642196Y-40217377D01*
X83446430Y-40436439D01*
X83436439Y-40446430D01*
X83217377Y-40642196D01*
X83206329Y-40651006D01*
X82966731Y-40821009D01*
X82954768Y-40828526D01*
X82697635Y-40970639D01*
X82684912Y-40976766D01*
X82413477Y-41089198D01*
X82400156Y-41093859D01*
X82204600Y-41150198D01*
X82117841Y-41175193D01*
X82104066Y-41178337D01*
X81959248Y-41202943D01*
X81814425Y-41227550D01*
X81800393Y-41229130D01*
X81535469Y-41244008D01*
X81524581Y-41243243D01*
X81524581Y-41243444D01*
X81512170Y-41243444D01*
X81500000Y-41241024D01*
X81487153Y-41243579D01*
X81462575Y-41246000D01*
X23537425Y-41246000D01*
X23512847Y-41243579D01*
X23500000Y-41241024D01*
X23487830Y-41243444D01*
X23475419Y-41243444D01*
X23475419Y-41243243D01*
X23464531Y-41244008D01*
X23199607Y-41229130D01*
X23185575Y-41227550D01*
X23040752Y-41202943D01*
X22895934Y-41178337D01*
X22882159Y-41175193D01*
X22795400Y-41150198D01*
X22599844Y-41093859D01*
X22586523Y-41089198D01*
X22315088Y-40976766D01*
X22302365Y-40970639D01*
X22045232Y-40828526D01*
X22033269Y-40821009D01*
X21793671Y-40651006D01*
X21782623Y-40642196D01*
X21563561Y-40446430D01*
X21553570Y-40436439D01*
X21357804Y-40217377D01*
X21348994Y-40206329D01*
X21178991Y-39966731D01*
X21171474Y-39954768D01*
X21029363Y-39697639D01*
X21023232Y-39684908D01*
X20973548Y-39564960D01*
X20910802Y-39413477D01*
X20906141Y-39400156D01*
X20824807Y-39117841D01*
X20821663Y-39104066D01*
X20782842Y-38875585D01*
X20772450Y-38814425D01*
X20770869Y-38800389D01*
X20755992Y-38535472D01*
X20756757Y-38524581D01*
X20756556Y-38524581D01*
X20756556Y-38512170D01*
X20758976Y-38500000D01*
X20756421Y-38487153D01*
X20754000Y-38462575D01*
X20754000Y-33460048D01*
X26442000Y-33460048D01*
X26442000Y-34252464D01*
X26442207Y-34257570D01*
X26453082Y-34391266D01*
X26454853Y-34401821D01*
X26507967Y-34608685D01*
X26511701Y-34619231D01*
X26600510Y-34813205D01*
X26606046Y-34822912D01*
X26727803Y-34998097D01*
X26734976Y-35006676D01*
X26885824Y-35157524D01*
X26894403Y-35164697D01*
X27069588Y-35286454D01*
X27079295Y-35291990D01*
X27273269Y-35380799D01*
X27283815Y-35384533D01*
X27490679Y-35437647D01*
X27501234Y-35439418D01*
X27634930Y-35450293D01*
X27640036Y-35450500D01*
X28177885Y-35450500D01*
X28193124Y-35446025D01*
X28194329Y-35444635D01*
X28196000Y-35436952D01*
X28196000Y-33464615D01*
X28191525Y-33449376D01*
X28190135Y-33448171D01*
X28182452Y-33446500D01*
X26460115Y-33446500D01*
X26444876Y-33450975D01*
X26443671Y-33452365D01*
X26442000Y-33460048D01*
X20754000Y-33460048D01*
X20754000Y-32132536D01*
X26442000Y-32132536D01*
X26442000Y-32920385D01*
X26446475Y-32935624D01*
X26447865Y-32936829D01*
X26455548Y-32938500D01*
X28177885Y-32938500D01*
X28193124Y-32934025D01*
X28194329Y-32932635D01*
X28196000Y-32924952D01*
X28196000Y-30952615D01*
X28194659Y-30948048D01*
X28704000Y-30948048D01*
X28704000Y-35432385D01*
X28708475Y-35447624D01*
X28709865Y-35448829D01*
X28717548Y-35450500D01*
X29259964Y-35450500D01*
X29265070Y-35450293D01*
X29398766Y-35439418D01*
X29409321Y-35437647D01*
X29616185Y-35384533D01*
X29626731Y-35380799D01*
X29820705Y-35291990D01*
X29830412Y-35286454D01*
X30005597Y-35164697D01*
X30014176Y-35157524D01*
X30165024Y-35006676D01*
X30172197Y-34998097D01*
X30293954Y-34822912D01*
X30299490Y-34813205D01*
X30388299Y-34619231D01*
X30392033Y-34608685D01*
X30416959Y-34511606D01*
X30453273Y-34450600D01*
X30516806Y-34418911D01*
X30587385Y-34426601D01*
X30642602Y-34471229D01*
X30665000Y-34542941D01*
X30665000Y-35508500D01*
X30644998Y-35576621D01*
X30591342Y-35623114D01*
X30539000Y-35634500D01*
X30484370Y-35634500D01*
X30480984Y-35634591D01*
X30429455Y-35637382D01*
X30420811Y-35638455D01*
X30199982Y-35681580D01*
X30189754Y-35684494D01*
X29980260Y-35763864D01*
X29970662Y-35768462D01*
X29777540Y-35881993D01*
X29768851Y-35888146D01*
X29597608Y-36032601D01*
X29590101Y-36040108D01*
X29445646Y-36211351D01*
X29439493Y-36220040D01*
X29325962Y-36413162D01*
X29321364Y-36422760D01*
X29241994Y-36632254D01*
X29239080Y-36642482D01*
X29195955Y-36863311D01*
X29194882Y-36871955D01*
X29192091Y-36923484D01*
X29192000Y-36926870D01*
X29192000Y-37620385D01*
X29196475Y-37635624D01*
X29197865Y-37636829D01*
X29205548Y-37638500D01*
X30665000Y-37638500D01*
X30665000Y-38146500D01*
X29210115Y-38146500D01*
X29194876Y-38150975D01*
X29193671Y-38152365D01*
X29192000Y-38160048D01*
X29192000Y-38858131D01*
X29192091Y-38861516D01*
X29194882Y-38913045D01*
X29195955Y-38921689D01*
X29239080Y-39142518D01*
X29241994Y-39152746D01*
X29321364Y-39362240D01*
X29325962Y-39371838D01*
X29439493Y-39564960D01*
X29445646Y-39573649D01*
X29590101Y-39744892D01*
X29597608Y-39752399D01*
X29768851Y-39896854D01*
X29777540Y-39903007D01*
X29970662Y-40016538D01*
X29980260Y-40021136D01*
X30189754Y-40100506D01*
X30199982Y-40103420D01*
X30420811Y-40146545D01*
X30429455Y-40147618D01*
X30480984Y-40150409D01*
X30484369Y-40150500D01*
X31177885Y-40150500D01*
X31193124Y-40146025D01*
X31194329Y-40144635D01*
X31196000Y-40136952D01*
X31196000Y-38756400D01*
X31704000Y-38756400D01*
X31704000Y-40132385D01*
X31708475Y-40147624D01*
X31709865Y-40148829D01*
X31717548Y-40150500D01*
X32415631Y-40150500D01*
X32419016Y-40150409D01*
X32470545Y-40147618D01*
X32479189Y-40146545D01*
X32700018Y-40103420D01*
X32710246Y-40100506D01*
X32919740Y-40021136D01*
X32929338Y-40016538D01*
X33122460Y-39903007D01*
X33131149Y-39896854D01*
X33302392Y-39752399D01*
X33309899Y-39744892D01*
X33454354Y-39573649D01*
X33460507Y-39564960D01*
X33574038Y-39371838D01*
X33578636Y-39362240D01*
X33658006Y-39152746D01*
X33660920Y-39142518D01*
X33704045Y-38921689D01*
X33705118Y-38913045D01*
X33707147Y-38875585D01*
X33730805Y-38808646D01*
X33786896Y-38765123D01*
X33832963Y-38756400D01*
X43285000Y-38756400D01*
X43285000Y-33299400D01*
X44156893Y-33299400D01*
X44176091Y-33543329D01*
X44177245Y-33548136D01*
X44177246Y-33548142D01*
X44203196Y-33656230D01*
X44233211Y-33781252D01*
X44235104Y-33785823D01*
X44235105Y-33785825D01*
X44291576Y-33922158D01*
X44326847Y-34007311D01*
X44454694Y-34215938D01*
X44613603Y-34401997D01*
X44799662Y-34560906D01*
X45008289Y-34688753D01*
X45012859Y-34690646D01*
X45012863Y-34690648D01*
X45201217Y-34768666D01*
X45234348Y-34782389D01*
X45316652Y-34802148D01*
X45467458Y-34838354D01*
X45467464Y-34838355D01*
X45472271Y-34839509D01*
X45716200Y-34858707D01*
X45960129Y-34839509D01*
X45964936Y-34838355D01*
X45964942Y-34838354D01*
X46115748Y-34802148D01*
X46198052Y-34782389D01*
X46231183Y-34768666D01*
X46289994Y-34744306D01*
X49636039Y-34744306D01*
X49644753Y-34755827D01*
X49751652Y-34834209D01*
X49759551Y-34839145D01*
X49989105Y-34959919D01*
X49997654Y-34963636D01*
X50242527Y-35049149D01*
X50251536Y-35051563D01*
X50506366Y-35099944D01*
X50515623Y-35100998D01*
X50774807Y-35111183D01*
X50784121Y-35110857D01*
X51041953Y-35082620D01*
X51051130Y-35080919D01*
X51301958Y-35014881D01*
X51310774Y-35011845D01*
X51549080Y-34909462D01*
X51557367Y-34905148D01*
X51777918Y-34768666D01*
X51785468Y-34763180D01*
X51790759Y-34758701D01*
X51799197Y-34745897D01*
X51793135Y-34735545D01*
X50729012Y-33671422D01*
X50715068Y-33663808D01*
X50713235Y-33663939D01*
X50706620Y-33668190D01*
X49642697Y-34732113D01*
X49636039Y-34744306D01*
X46289994Y-34744306D01*
X46419537Y-34690648D01*
X46419541Y-34690646D01*
X46424111Y-34688753D01*
X46632738Y-34560906D01*
X46818797Y-34401997D01*
X46977706Y-34215938D01*
X47105553Y-34007311D01*
X47140825Y-33922158D01*
X47197295Y-33785825D01*
X47197296Y-33785823D01*
X47199189Y-33781252D01*
X47229204Y-33656230D01*
X47255154Y-33548142D01*
X47255155Y-33548136D01*
X47256309Y-33543329D01*
X47275507Y-33299400D01*
X47272139Y-33256611D01*
X48903975Y-33256611D01*
X48916420Y-33515688D01*
X48917556Y-33524943D01*
X48968161Y-33779345D01*
X48970649Y-33788317D01*
X49058295Y-34032433D01*
X49062095Y-34040968D01*
X49184858Y-34269442D01*
X49189866Y-34277304D01*
X49259920Y-34371116D01*
X49271179Y-34379565D01*
X49283597Y-34372793D01*
X50344178Y-33312212D01*
X50350556Y-33300532D01*
X51080608Y-33300532D01*
X51080739Y-33302365D01*
X51084990Y-33308980D01*
X52152294Y-34376284D01*
X52164674Y-34383044D01*
X52173015Y-34376800D01*
X52307032Y-34168448D01*
X52311475Y-34160264D01*
X52418007Y-33923770D01*
X52421197Y-33915005D01*
X52491602Y-33665372D01*
X52493462Y-33656230D01*
X52526387Y-33397419D01*
X52526868Y-33391133D01*
X52529187Y-33302560D01*
X52529036Y-33296251D01*
X52509701Y-33036063D01*
X52508325Y-33026857D01*
X52451078Y-32773867D01*
X52448354Y-32764956D01*
X52354343Y-32523206D01*
X52350332Y-32514797D01*
X52221622Y-32289602D01*
X52216411Y-32281876D01*
X52173196Y-32227058D01*
X52161271Y-32218587D01*
X52149737Y-32225073D01*
X51088222Y-33286588D01*
X51080608Y-33300532D01*
X50350556Y-33300532D01*
X50351792Y-33298268D01*
X50351661Y-33296435D01*
X50347410Y-33289820D01*
X49282016Y-32224426D01*
X49268707Y-32217158D01*
X49258672Y-32224278D01*
X49243137Y-32242956D01*
X49237731Y-32250535D01*
X49103165Y-32472291D01*
X49098936Y-32480592D01*
X48998632Y-32719789D01*
X48995671Y-32728639D01*
X48931828Y-32980025D01*
X48930206Y-32989222D01*
X48904220Y-33247285D01*
X48903975Y-33256611D01*
X47272139Y-33256611D01*
X47256309Y-33055471D01*
X47249440Y-33026857D01*
X47200344Y-32822360D01*
X47199189Y-32817548D01*
X47105553Y-32591489D01*
X46977706Y-32382862D01*
X46818797Y-32196803D01*
X46632738Y-32037894D01*
X46424111Y-31910047D01*
X46419541Y-31908154D01*
X46419537Y-31908152D01*
X46284188Y-31852089D01*
X49633302Y-31852089D01*
X49637875Y-31861865D01*
X50703388Y-32927378D01*
X50717332Y-32934992D01*
X50719165Y-32934861D01*
X50725780Y-32930610D01*
X51790549Y-31865841D01*
X51796933Y-31854151D01*
X51787521Y-31842041D01*
X51640245Y-31739871D01*
X51632210Y-31735138D01*
X51399576Y-31620416D01*
X51390943Y-31616928D01*
X51143903Y-31537850D01*
X51134843Y-31535674D01*
X50878830Y-31493980D01*
X50869543Y-31493168D01*
X50610192Y-31489773D01*
X50600881Y-31490343D01*
X50343882Y-31525319D01*
X50334746Y-31527260D01*
X50085743Y-31599839D01*
X50077000Y-31603107D01*
X49841452Y-31711696D01*
X49833297Y-31716216D01*
X49642440Y-31841347D01*
X49633302Y-31852089D01*
X46284188Y-31852089D01*
X46202625Y-31818305D01*
X46202623Y-31818304D01*
X46198052Y-31816411D01*
X46115748Y-31796652D01*
X45964942Y-31760446D01*
X45964936Y-31760445D01*
X45960129Y-31759291D01*
X45716200Y-31740093D01*
X45472271Y-31759291D01*
X45467464Y-31760445D01*
X45467458Y-31760446D01*
X45316652Y-31796652D01*
X45234348Y-31816411D01*
X45229777Y-31818304D01*
X45229775Y-31818305D01*
X45012863Y-31908152D01*
X45012859Y-31908154D01*
X45008289Y-31910047D01*
X44799662Y-32037894D01*
X44613603Y-32196803D01*
X44454694Y-32382862D01*
X44326847Y-32591489D01*
X44233211Y-32817548D01*
X44232056Y-32822360D01*
X44182961Y-33026857D01*
X44176091Y-33055471D01*
X44156893Y-33299400D01*
X43285000Y-33299400D01*
X43285000Y-31487767D01*
X43305002Y-31419646D01*
X43321905Y-31398672D01*
X43529372Y-31191205D01*
X43591684Y-31157179D01*
X43618467Y-31154300D01*
X57834454Y-31154300D01*
X57902575Y-31174302D01*
X57949068Y-31227958D01*
X57959172Y-31298232D01*
X57929678Y-31362812D01*
X57903539Y-31385672D01*
X57788046Y-31461392D01*
X57788041Y-31461396D01*
X57784133Y-31463958D01*
X57715384Y-31525319D01*
X57608837Y-31620416D01*
X57589579Y-31637604D01*
X57422829Y-31838100D01*
X57287545Y-32061040D01*
X57285738Y-32065348D01*
X57285738Y-32065349D01*
X57194941Y-32281876D01*
X57186700Y-32301528D01*
X57122510Y-32554280D01*
X57096383Y-32813744D01*
X57096607Y-32818411D01*
X57096607Y-32818416D01*
X57102160Y-32934025D01*
X57108894Y-33074219D01*
X57159769Y-33329985D01*
X57247890Y-33575421D01*
X57250106Y-33579545D01*
X57358487Y-33781252D01*
X57371320Y-33805136D01*
X57374115Y-33808879D01*
X57374117Y-33808882D01*
X57524557Y-34010345D01*
X57524562Y-34010351D01*
X57527349Y-34014083D01*
X57530658Y-34017363D01*
X57530663Y-34017369D01*
X57631901Y-34117727D01*
X57712548Y-34197673D01*
X57716310Y-34200431D01*
X57716313Y-34200434D01*
X57832546Y-34285660D01*
X57922849Y-34351873D01*
X57926980Y-34354047D01*
X57926981Y-34354047D01*
X58149498Y-34471119D01*
X58149504Y-34471121D01*
X58153633Y-34473294D01*
X58300420Y-34524554D01*
X58353073Y-34542941D01*
X58399829Y-34559269D01*
X58404422Y-34560141D01*
X58651439Y-34607039D01*
X58651442Y-34607039D01*
X58656028Y-34607910D01*
X58779925Y-34612778D01*
X58911935Y-34617965D01*
X58911940Y-34617965D01*
X58916603Y-34618148D01*
X59010085Y-34607910D01*
X59171176Y-34590268D01*
X59171181Y-34590267D01*
X59175829Y-34589758D01*
X59428011Y-34523364D01*
X59653235Y-34426601D01*
X59663307Y-34422274D01*
X59663310Y-34422272D01*
X59667610Y-34420425D01*
X59671590Y-34417962D01*
X59671594Y-34417960D01*
X59885388Y-34285660D01*
X59885392Y-34285657D01*
X59889361Y-34283201D01*
X60088394Y-34114707D01*
X60260335Y-33918645D01*
X60401408Y-33699323D01*
X60508514Y-33461557D01*
X60511107Y-33452365D01*
X60544743Y-33333099D01*
X60582484Y-33272965D01*
X60646745Y-33242782D01*
X60666012Y-33241300D01*
X70179721Y-33241300D01*
X70247842Y-33261302D01*
X70294335Y-33314958D01*
X70299718Y-33329728D01*
X70299769Y-33329985D01*
X70387890Y-33575421D01*
X70390106Y-33579545D01*
X70498487Y-33781252D01*
X70511320Y-33805136D01*
X70514115Y-33808879D01*
X70514117Y-33808882D01*
X70664557Y-34010345D01*
X70664562Y-34010351D01*
X70667349Y-34014083D01*
X70670658Y-34017363D01*
X70670663Y-34017369D01*
X70771901Y-34117727D01*
X70852548Y-34197673D01*
X70856310Y-34200431D01*
X70856313Y-34200434D01*
X70972546Y-34285660D01*
X71062849Y-34351873D01*
X71066980Y-34354047D01*
X71066981Y-34354047D01*
X71289498Y-34471119D01*
X71289504Y-34471121D01*
X71293633Y-34473294D01*
X71440420Y-34524554D01*
X71493073Y-34542941D01*
X71539829Y-34559269D01*
X71544422Y-34560141D01*
X71791439Y-34607039D01*
X71791442Y-34607039D01*
X71796028Y-34607910D01*
X71919925Y-34612778D01*
X72051935Y-34617965D01*
X72051940Y-34617965D01*
X72056603Y-34618148D01*
X72150085Y-34607910D01*
X72311176Y-34590268D01*
X72311181Y-34590267D01*
X72315829Y-34589758D01*
X72568011Y-34523364D01*
X72793235Y-34426601D01*
X72803307Y-34422274D01*
X72803310Y-34422272D01*
X72807610Y-34420425D01*
X72811590Y-34417962D01*
X72811594Y-34417960D01*
X73025388Y-34285660D01*
X73025392Y-34285657D01*
X73029361Y-34283201D01*
X73228394Y-34114707D01*
X73400335Y-33918645D01*
X73541408Y-33699323D01*
X73648514Y-33461557D01*
X73719299Y-33210572D01*
X73736062Y-33078807D01*
X73751811Y-32955012D01*
X73751811Y-32955006D01*
X73752209Y-32951881D01*
X73752560Y-32938500D01*
X73754537Y-32862960D01*
X73754620Y-32859800D01*
X73735294Y-32599741D01*
X73677742Y-32345395D01*
X73583227Y-32102350D01*
X73453825Y-31875945D01*
X73292380Y-31671153D01*
X73102439Y-31492474D01*
X72937893Y-31378324D01*
X72892015Y-31346497D01*
X72892012Y-31346495D01*
X72888173Y-31343832D01*
X72883983Y-31341766D01*
X72883980Y-31341764D01*
X72658478Y-31230559D01*
X72658475Y-31230558D01*
X72654290Y-31228494D01*
X72640523Y-31224087D01*
X72511479Y-31182780D01*
X72405928Y-31148993D01*
X72401321Y-31148243D01*
X72401318Y-31148242D01*
X72153155Y-31107826D01*
X72153156Y-31107826D01*
X72148544Y-31107075D01*
X72022075Y-31105420D01*
X71892467Y-31103723D01*
X71892464Y-31103723D01*
X71887790Y-31103662D01*
X71629396Y-31138828D01*
X71624910Y-31140136D01*
X71624908Y-31140136D01*
X71566436Y-31157179D01*
X71379038Y-31211800D01*
X71374786Y-31213760D01*
X71374784Y-31213761D01*
X71346891Y-31226620D01*
X71142216Y-31320977D01*
X71138311Y-31323537D01*
X71138306Y-31323540D01*
X70928046Y-31461392D01*
X70928041Y-31461396D01*
X70924133Y-31463958D01*
X70855384Y-31525319D01*
X70748837Y-31620416D01*
X70729579Y-31637604D01*
X70562829Y-31838100D01*
X70427545Y-32061040D01*
X70425738Y-32065348D01*
X70425738Y-32065349D01*
X70334941Y-32281876D01*
X70326700Y-32301528D01*
X70325549Y-32306060D01*
X70325548Y-32306063D01*
X70305929Y-32383315D01*
X70269775Y-32444416D01*
X70206326Y-32476271D01*
X70183806Y-32478300D01*
X60668490Y-32478300D01*
X60600369Y-32458298D01*
X60553876Y-32404642D01*
X60545597Y-32380109D01*
X60538772Y-32349949D01*
X60537742Y-32345395D01*
X60443227Y-32102350D01*
X60313825Y-31875945D01*
X60152380Y-31671153D01*
X59962439Y-31492474D01*
X59805823Y-31383825D01*
X59761255Y-31328564D01*
X59753638Y-31257977D01*
X59764697Y-31235862D01*
X68203693Y-31235862D01*
X68212989Y-31247877D01*
X68264194Y-31283731D01*
X68273689Y-31289214D01*
X68471147Y-31381290D01*
X68481439Y-31385036D01*
X68691888Y-31441425D01*
X68702681Y-31443328D01*
X68919725Y-31462317D01*
X68930675Y-31462317D01*
X69147719Y-31443328D01*
X69158512Y-31441425D01*
X69368961Y-31385036D01*
X69379253Y-31381290D01*
X69576711Y-31289214D01*
X69586206Y-31283731D01*
X69638248Y-31247291D01*
X69646624Y-31236812D01*
X69639556Y-31223366D01*
X68938012Y-30521822D01*
X68924068Y-30514208D01*
X68922235Y-30514339D01*
X68915620Y-30518590D01*
X68210123Y-31224087D01*
X68203693Y-31235862D01*
X59764697Y-31235862D01*
X59785392Y-31194478D01*
X59846436Y-31158226D01*
X59877645Y-31154300D01*
X61074688Y-31154300D01*
X61074695Y-31154301D01*
X61074799Y-31154344D01*
X61075131Y-31154344D01*
X61125200Y-31154300D01*
X62775600Y-31154300D01*
X62776045Y-31154256D01*
X62852079Y-31122684D01*
X62858093Y-31120187D01*
X62858094Y-31120186D01*
X62869551Y-31115429D01*
X62905400Y-31079517D01*
X62932313Y-31052557D01*
X62932314Y-31052555D01*
X62941080Y-31043774D01*
X62979744Y-30950201D01*
X62979700Y-30899800D01*
X62979700Y-30135006D01*
X63365701Y-30135006D01*
X63383006Y-30341078D01*
X63440007Y-30539866D01*
X63442825Y-30545348D01*
X63442826Y-30545352D01*
X63531714Y-30718309D01*
X63531717Y-30718313D01*
X63534534Y-30723795D01*
X63662986Y-30885861D01*
X63667679Y-30889855D01*
X63667680Y-30889856D01*
X63736056Y-30948048D01*
X63820471Y-31019891D01*
X64000989Y-31120780D01*
X64197666Y-31184684D01*
X64403009Y-31209170D01*
X64409144Y-31208698D01*
X64409146Y-31208698D01*
X64603056Y-31193777D01*
X64603060Y-31193776D01*
X64609198Y-31193304D01*
X64808378Y-31137692D01*
X64813882Y-31134912D01*
X64813884Y-31134911D01*
X64987462Y-31047231D01*
X64987464Y-31047230D01*
X64992963Y-31044452D01*
X65155922Y-30917134D01*
X65159948Y-30912470D01*
X65159951Y-30912467D01*
X65287019Y-30765257D01*
X65287020Y-30765255D01*
X65291048Y-30760589D01*
X65313803Y-30720533D01*
X65364843Y-30671183D01*
X65434462Y-30657261D01*
X65500555Y-30683188D01*
X65529273Y-30714519D01*
X65531712Y-30718303D01*
X65534534Y-30723795D01*
X65662986Y-30885861D01*
X65667679Y-30889855D01*
X65667680Y-30889856D01*
X65736056Y-30948048D01*
X65820471Y-31019891D01*
X66000989Y-31120780D01*
X66197666Y-31184684D01*
X66403009Y-31209170D01*
X66409144Y-31208698D01*
X66409146Y-31208698D01*
X66603056Y-31193777D01*
X66603060Y-31193776D01*
X66609198Y-31193304D01*
X66808378Y-31137692D01*
X66813882Y-31134912D01*
X66813884Y-31134911D01*
X66987462Y-31047231D01*
X66987464Y-31047230D01*
X66992963Y-31044452D01*
X67155922Y-30917134D01*
X67159948Y-30912470D01*
X67159951Y-30912467D01*
X67287019Y-30765257D01*
X67287020Y-30765255D01*
X67291048Y-30760589D01*
X67393195Y-30580779D01*
X67423102Y-30490874D01*
X67463584Y-30432549D01*
X67529172Y-30405369D01*
X67599042Y-30417963D01*
X67651012Y-30466333D01*
X67664368Y-30498034D01*
X67689964Y-30593561D01*
X67693710Y-30603853D01*
X67785786Y-30801311D01*
X67791269Y-30810806D01*
X67827709Y-30862848D01*
X67838188Y-30871224D01*
X67851634Y-30864156D01*
X68553178Y-30162612D01*
X68559556Y-30150932D01*
X69289608Y-30150932D01*
X69289739Y-30152765D01*
X69293990Y-30159380D01*
X69999487Y-30864877D01*
X70011262Y-30871307D01*
X70023277Y-30862011D01*
X70059131Y-30810806D01*
X70064614Y-30801311D01*
X70156690Y-30603853D01*
X70160436Y-30593561D01*
X70216825Y-30383112D01*
X70218728Y-30372319D01*
X70237717Y-30155275D01*
X70237717Y-30144325D01*
X70218728Y-29927281D01*
X70216825Y-29916488D01*
X70160436Y-29706039D01*
X70156690Y-29695747D01*
X70064614Y-29498289D01*
X70059131Y-29488794D01*
X70022691Y-29436752D01*
X70012212Y-29428376D01*
X69998766Y-29435444D01*
X69297222Y-30136988D01*
X69289608Y-30150932D01*
X68559556Y-30150932D01*
X68560792Y-30148668D01*
X68560661Y-30146835D01*
X68556410Y-30140220D01*
X67850913Y-29434723D01*
X67839138Y-29428293D01*
X67827123Y-29437589D01*
X67791269Y-29488794D01*
X67785786Y-29498289D01*
X67693710Y-29695747D01*
X67689965Y-29706036D01*
X67664712Y-29800281D01*
X67627760Y-29860903D01*
X67563899Y-29891925D01*
X67493405Y-29883496D01*
X67438658Y-29838293D01*
X67422383Y-29804086D01*
X67406633Y-29751919D01*
X67406633Y-29751918D01*
X67404851Y-29746017D01*
X67336656Y-29617761D01*
X67310659Y-29568867D01*
X67310657Y-29568864D01*
X67307765Y-29563425D01*
X67303874Y-29558655D01*
X67303872Y-29558651D01*
X67180958Y-29407943D01*
X67180955Y-29407940D01*
X67177063Y-29403168D01*
X67170166Y-29397462D01*
X67022471Y-29275278D01*
X67022466Y-29275275D01*
X67017722Y-29271350D01*
X67012303Y-29268420D01*
X67012300Y-29268418D01*
X66841232Y-29175922D01*
X66841227Y-29175920D01*
X66835812Y-29172992D01*
X66638263Y-29111840D01*
X66632138Y-29111196D01*
X66632137Y-29111196D01*
X66438726Y-29090868D01*
X66438724Y-29090868D01*
X66432597Y-29090224D01*
X66306429Y-29101706D01*
X66232791Y-29108407D01*
X66232790Y-29108407D01*
X66226650Y-29108966D01*
X66028266Y-29167354D01*
X66022801Y-29170211D01*
X65850461Y-29260308D01*
X65850457Y-29260311D01*
X65845001Y-29263163D01*
X65683835Y-29392743D01*
X65550908Y-29551160D01*
X65536254Y-29577815D01*
X65485910Y-29627870D01*
X65416493Y-29642763D01*
X65350044Y-29617761D01*
X65314593Y-29576266D01*
X65307765Y-29563425D01*
X65303874Y-29558655D01*
X65303872Y-29558651D01*
X65180958Y-29407943D01*
X65180955Y-29407940D01*
X65177063Y-29403168D01*
X65170166Y-29397462D01*
X65022471Y-29275278D01*
X65022466Y-29275275D01*
X65017722Y-29271350D01*
X65012303Y-29268420D01*
X65012300Y-29268418D01*
X64841232Y-29175922D01*
X64841227Y-29175920D01*
X64835812Y-29172992D01*
X64638263Y-29111840D01*
X64632138Y-29111196D01*
X64632137Y-29111196D01*
X64438726Y-29090868D01*
X64438724Y-29090868D01*
X64432597Y-29090224D01*
X64306429Y-29101706D01*
X64232791Y-29108407D01*
X64232790Y-29108407D01*
X64226650Y-29108966D01*
X64028266Y-29167354D01*
X64022801Y-29170211D01*
X63850461Y-29260308D01*
X63850457Y-29260311D01*
X63845001Y-29263163D01*
X63683835Y-29392743D01*
X63550908Y-29551160D01*
X63451282Y-29732378D01*
X63388753Y-29929496D01*
X63365701Y-30135006D01*
X62979700Y-30135006D01*
X62979700Y-29349400D01*
X62979656Y-29348955D01*
X62940829Y-29255449D01*
X62904917Y-29219600D01*
X62877957Y-29192687D01*
X62877955Y-29192686D01*
X62869174Y-29183920D01*
X62775601Y-29145256D01*
X62725200Y-29145300D01*
X43411000Y-29145300D01*
X43342879Y-29125298D01*
X43296386Y-29071642D01*
X43294460Y-29062788D01*
X68203776Y-29062788D01*
X68210844Y-29076234D01*
X68912388Y-29777778D01*
X68926332Y-29785392D01*
X68928165Y-29785261D01*
X68934780Y-29781010D01*
X69640277Y-29075513D01*
X69646707Y-29063738D01*
X69637411Y-29051723D01*
X69586206Y-29015869D01*
X69576711Y-29010386D01*
X69379253Y-28918310D01*
X69368961Y-28914564D01*
X69158512Y-28858175D01*
X69147719Y-28856272D01*
X68930675Y-28837283D01*
X68919725Y-28837283D01*
X68702681Y-28856272D01*
X68691888Y-28858175D01*
X68481439Y-28914564D01*
X68471147Y-28918310D01*
X68273689Y-29010386D01*
X68264194Y-29015869D01*
X68212152Y-29052309D01*
X68203776Y-29062788D01*
X43294460Y-29062788D01*
X43285000Y-29019300D01*
X43285000Y-28016600D01*
X30665000Y-28016600D01*
X30665000Y-31842059D01*
X30644998Y-31910180D01*
X30591342Y-31956673D01*
X30521068Y-31966777D01*
X30456488Y-31937283D01*
X30416959Y-31873394D01*
X30392033Y-31776315D01*
X30388299Y-31765769D01*
X30299490Y-31571795D01*
X30293954Y-31562088D01*
X30172197Y-31386903D01*
X30165024Y-31378324D01*
X30014176Y-31227476D01*
X30005597Y-31220303D01*
X29830412Y-31098546D01*
X29820705Y-31093010D01*
X29626731Y-31004201D01*
X29616185Y-31000467D01*
X29409321Y-30947353D01*
X29398766Y-30945582D01*
X29265070Y-30934707D01*
X29259964Y-30934500D01*
X28722115Y-30934500D01*
X28706876Y-30938975D01*
X28705671Y-30940365D01*
X28704000Y-30948048D01*
X28194659Y-30948048D01*
X28191525Y-30937376D01*
X28190135Y-30936171D01*
X28182452Y-30934500D01*
X27640036Y-30934500D01*
X27634930Y-30934707D01*
X27501234Y-30945582D01*
X27490679Y-30947353D01*
X27283815Y-31000467D01*
X27273269Y-31004201D01*
X27079295Y-31093010D01*
X27069588Y-31098546D01*
X26894403Y-31220303D01*
X26885824Y-31227476D01*
X26734976Y-31378324D01*
X26727803Y-31386903D01*
X26606046Y-31562088D01*
X26600510Y-31571795D01*
X26511701Y-31765769D01*
X26507967Y-31776315D01*
X26454853Y-31983179D01*
X26453082Y-31993734D01*
X26442207Y-32127430D01*
X26442000Y-32132536D01*
X20754000Y-32132536D01*
X20754000Y-23537425D01*
X20756421Y-23512844D01*
X20758976Y-23500000D01*
X21990848Y-23500000D01*
X22009428Y-23736083D01*
X22010582Y-23740890D01*
X22010583Y-23740896D01*
X22036119Y-23847261D01*
X22064711Y-23966354D01*
X22066604Y-23970925D01*
X22066605Y-23970927D01*
X22146263Y-24163236D01*
X22155336Y-24185141D01*
X22279070Y-24387057D01*
X22432868Y-24567132D01*
X22612943Y-24720930D01*
X22814859Y-24844664D01*
X22819429Y-24846557D01*
X22819433Y-24846559D01*
X23029073Y-24933395D01*
X23029075Y-24933396D01*
X23033646Y-24935289D01*
X23113499Y-24954460D01*
X23259104Y-24989417D01*
X23259110Y-24989418D01*
X23263917Y-24990572D01*
X23500000Y-25009152D01*
X23736083Y-24990572D01*
X23740890Y-24989418D01*
X23740896Y-24989417D01*
X23886501Y-24954460D01*
X23966354Y-24935289D01*
X23970925Y-24933396D01*
X23970927Y-24933395D01*
X24180567Y-24846559D01*
X24180571Y-24846557D01*
X24185141Y-24844664D01*
X24387057Y-24720930D01*
X24567132Y-24567132D01*
X24720930Y-24387057D01*
X24844664Y-24185141D01*
X24853738Y-24163236D01*
X24933395Y-23970927D01*
X24933396Y-23970925D01*
X24935289Y-23966354D01*
X24963881Y-23847261D01*
X24989417Y-23740896D01*
X24989418Y-23740890D01*
X24990572Y-23736083D01*
X25009152Y-23500000D01*
X24990572Y-23263917D01*
X24987875Y-23252680D01*
X24954460Y-23113499D01*
X24935289Y-23033646D01*
X24933395Y-23029073D01*
X24846559Y-22819433D01*
X24846557Y-22819429D01*
X24844664Y-22814859D01*
X24720930Y-22612943D01*
X24567132Y-22432868D01*
X24387057Y-22279070D01*
X24185141Y-22155336D01*
X24180571Y-22153443D01*
X24180567Y-22153441D01*
X23970927Y-22066605D01*
X23970925Y-22066604D01*
X23966354Y-22064711D01*
X23867336Y-22040939D01*
X23740896Y-22010583D01*
X23740890Y-22010582D01*
X23736083Y-22009428D01*
X23500000Y-21990848D01*
X23263917Y-22009428D01*
X23259110Y-22010582D01*
X23259104Y-22010583D01*
X23132664Y-22040939D01*
X23033646Y-22064711D01*
X23029075Y-22066604D01*
X23029073Y-22066605D01*
X22819433Y-22153441D01*
X22819429Y-22153443D01*
X22814859Y-22155336D01*
X22612943Y-22279070D01*
X22432868Y-22432868D01*
X22279070Y-22612943D01*
X22155336Y-22814859D01*
X22153443Y-22819429D01*
X22153441Y-22819433D01*
X22066605Y-23029073D01*
X22064711Y-23033646D01*
X22045540Y-23113499D01*
X22012126Y-23252680D01*
X22009428Y-23263917D01*
X21990848Y-23500000D01*
X20758976Y-23500000D01*
X20756556Y-23487830D01*
X20756556Y-23475419D01*
X20756757Y-23475419D01*
X20755992Y-23464528D01*
X20756280Y-23459411D01*
X20770870Y-23199607D01*
X20772451Y-23185570D01*
X20773049Y-23182054D01*
X20811572Y-22955326D01*
X20821663Y-22895934D01*
X20824807Y-22882159D01*
X20853145Y-22783796D01*
X20906141Y-22599844D01*
X20910802Y-22586523D01*
X21023234Y-22315088D01*
X21029363Y-22302361D01*
X21171474Y-22045232D01*
X21178991Y-22033269D01*
X21348994Y-21793671D01*
X21357804Y-21782623D01*
X21384591Y-21752649D01*
X21553571Y-21563560D01*
X21563561Y-21553570D01*
X21688780Y-21441667D01*
X21782624Y-21357803D01*
X21793671Y-21348994D01*
X21824007Y-21327470D01*
X22033269Y-21178991D01*
X22045232Y-21171474D01*
X22163605Y-21106051D01*
X22302365Y-21029361D01*
X22315088Y-21023234D01*
X22586523Y-20910802D01*
X22599844Y-20906141D01*
X22818739Y-20843078D01*
X22882159Y-20824807D01*
X22895934Y-20821663D01*
X23040752Y-20797057D01*
X23185575Y-20772450D01*
X23199607Y-20770870D01*
X23464531Y-20755992D01*
X23475419Y-20756757D01*
X23475419Y-20756556D01*
X23487830Y-20756556D01*
X23500000Y-20758976D01*
X23512847Y-20756421D01*
X23537425Y-20754000D01*
X32072487Y-20754000D01*
X32140608Y-20774002D01*
G37*
%TD.AperFunction*%
%TD*%
M02*
