%TF.GenerationSoftware,KiCad,Pcbnew,(5.99.0-11450-g1c1f7ac07e)*%
%TF.CreationDate,2021-09-18T13:42:06-03:00*%
%TF.ProjectId,LedHAt,4c656448-4174-42e6-9b69-6361645f7063,rev?*%
%TF.SameCoordinates,Original*%
%TF.FileFunction,Legend,Bot*%
%TF.FilePolarity,Positive*%
%FSLAX46Y46*%
G04 Gerber Fmt 4.6, Leading zero omitted, Abs format (unit mm)*
G04 Created by KiCad (PCBNEW (5.99.0-11450-g1c1f7ac07e)) date 2021-09-18 13:42:06*
%MOMM*%
%LPD*%
G01*
G04 APERTURE LIST*
%ADD10C,0.150000*%
%ADD11C,0.120000*%
G04 APERTURE END LIST*
D10*
%TO.C,JP2*%
X50433333Y-27652380D02*
X50433333Y-28366666D01*
X50480952Y-28509523D01*
X50576190Y-28604761D01*
X50719047Y-28652380D01*
X50814285Y-28652380D01*
X49957142Y-28652380D02*
X49957142Y-27652380D01*
X49576190Y-27652380D01*
X49480952Y-27700000D01*
X49433333Y-27747619D01*
X49385714Y-27842857D01*
X49385714Y-27985714D01*
X49433333Y-28080952D01*
X49480952Y-28128571D01*
X49576190Y-28176190D01*
X49957142Y-28176190D01*
X49004761Y-27747619D02*
X48957142Y-27700000D01*
X48861904Y-27652380D01*
X48623809Y-27652380D01*
X48528571Y-27700000D01*
X48480952Y-27747619D01*
X48433333Y-27842857D01*
X48433333Y-27938095D01*
X48480952Y-28080952D01*
X49052380Y-28652380D01*
X48433333Y-28652380D01*
%TO.C,J2*%
X25052380Y-23366666D02*
X25766666Y-23366666D01*
X25909523Y-23319047D01*
X26004761Y-23223809D01*
X26052380Y-23080952D01*
X26052380Y-22985714D01*
X25147619Y-23795238D02*
X25100000Y-23842857D01*
X25052380Y-23938095D01*
X25052380Y-24176190D01*
X25100000Y-24271428D01*
X25147619Y-24319047D01*
X25242857Y-24366666D01*
X25338095Y-24366666D01*
X25480952Y-24319047D01*
X26052380Y-23747619D01*
X26052380Y-24366666D01*
%TO.C,JP1*%
X26933333Y-27452380D02*
X26933333Y-28166666D01*
X26980952Y-28309523D01*
X27076190Y-28404761D01*
X27219047Y-28452380D01*
X27314285Y-28452380D01*
X26457142Y-28452380D02*
X26457142Y-27452380D01*
X26076190Y-27452380D01*
X25980952Y-27500000D01*
X25933333Y-27547619D01*
X25885714Y-27642857D01*
X25885714Y-27785714D01*
X25933333Y-27880952D01*
X25980952Y-27928571D01*
X26076190Y-27976190D01*
X26457142Y-27976190D01*
X24933333Y-28452380D02*
X25504761Y-28452380D01*
X25219047Y-28452380D02*
X25219047Y-27452380D01*
X25314285Y-27595238D01*
X25409523Y-27690476D01*
X25504761Y-27738095D01*
D11*
%TO.C,Q1*%
X43280000Y-29260000D02*
X43280000Y-27800000D01*
X40120000Y-29260000D02*
X40120000Y-27100000D01*
X43280000Y-29260000D02*
X42350000Y-29260000D01*
X40120000Y-29260000D02*
X41050000Y-29260000D01*
%TO.C,JP2*%
X47650000Y-27200000D02*
X44850000Y-27200000D01*
X44850000Y-29200000D02*
X47650000Y-29200000D01*
X47650000Y-29200000D02*
X47650000Y-27200000D01*
X44850000Y-27200000D02*
X44850000Y-29200000D01*
%TO.C,R2*%
X38137221Y-26990000D02*
X38462779Y-26990000D01*
X38137221Y-28010000D02*
X38462779Y-28010000D01*
%TO.C,R1*%
X39037221Y-31510000D02*
X39362779Y-31510000D01*
X39037221Y-30490000D02*
X39362779Y-30490000D01*
%TO.C,J2*%
X77960000Y-21100000D02*
X77960000Y-26300000D01*
X27040000Y-21100000D02*
X27040000Y-23700000D01*
X27040000Y-24970000D02*
X27040000Y-26300000D01*
X27040000Y-26300000D02*
X28370000Y-26300000D01*
X29640000Y-23700000D02*
X29640000Y-26300000D01*
X29640000Y-26300000D02*
X77960000Y-26300000D01*
X27040000Y-23700000D02*
X29640000Y-23700000D01*
X27040000Y-21100000D02*
X77960000Y-21100000D01*
%TO.C,JP1*%
X27600000Y-27000000D02*
X27600000Y-29000000D01*
X30400000Y-27000000D02*
X27600000Y-27000000D01*
X30400000Y-29000000D02*
X30400000Y-27000000D01*
X27600000Y-29000000D02*
X30400000Y-29000000D01*
%TD*%
M02*
