M48
; DRILL file {KiCad (5.99.0-11450-g1c1f7ac07e)} date Sat Sep 18 13:42:08 2021
; FORMAT={2:4/ absolute / inch / keep zeros}
; #@! TF.CreationDate,2021-09-18T13:42:08-03:00
; #@! TF.GenerationSoftware,Kicad,Pcbnew,(5.99.0-11450-g1c1f7ac07e)
; #@! TF.FileFunction,Plated,1,2,PTH
FMAT,2
INCH
; #@! TA.AperFunction,Plated,PTH,ViaDrill
T1C0.0157
; #@! TA.AperFunction,Plated,PTH,ComponentDrill
T2C0.0374
; #@! TA.AperFunction,Plated,PTH,ComponentDrill
T3C0.0394
; #@! TA.AperFunction,Plated,PTH,ComponentDrill
T4C0.0512
; #@! TA.AperFunction,Plated,PTH,ComponentDrill
T5C0.0906
%
G90
G05
T1
X008530Y-011030
X008530Y-012450
X008590Y-013740
X008690Y-015070
X009720Y-015830
X011090Y-015960
X013681Y-009360
X013858Y-010748
X013940Y-015870
X015630Y-010354
X016010Y-015920
X016646Y-009354
X017890Y-015830
X019654Y-009370
X019770Y-015870
X021470Y-015910
X022840Y-015850
X024080Y-015850
X024636Y-009293
X025440Y-015760
X027090Y-015800
X027707Y-009293
X027960Y-015800
X029450Y-015820
X030650Y-015820
X032090Y-015710
X032460Y-011330
X032480Y-012400
X032480Y-013320
X032480Y-014130
X032510Y-014950
T2
X024380Y-011870
X025364Y-011870
X026152Y-011870
X027136Y-011870
T3
X011169Y-008831
X011169Y-009831
X012169Y-008831
X012169Y-009831
X013169Y-008831
X013169Y-009831
X014169Y-008831
X014169Y-009831
X015169Y-008831
X015169Y-009831
X016169Y-008831
X016169Y-009831
X017169Y-008831
X017169Y-009831
X018169Y-008831
X018169Y-009831
X019169Y-008831
X019169Y-009831
X020169Y-008831
X020169Y-009831
X021169Y-008831
X021169Y-009831
X022169Y-008831
X022169Y-009831
X023169Y-008831
X023169Y-009831
X024169Y-008831
X024169Y-009831
X025169Y-008831
X025169Y-009831
X026169Y-008831
X026169Y-009831
X027169Y-008831
X027169Y-009831
X028169Y-008831
X028169Y-009831
X029169Y-008831
X029169Y-009831
X030169Y-008831
X030169Y-009831
T4
X016030Y-013110
X017999Y-013110
X019967Y-013110
T5
X023171Y-012937
X028345Y-012937
T3
G00X011201Y-012674
M15
G01X011201Y-013462
M16
G05
G00X011988Y-014918
M15
G01X012776Y-014918
M16
G05
G00X013563Y-012674
M15
G01X013563Y-013462
M16
G05
T0
M30
